<svg width="93" height="65" viewBox="0 0 93 65" fill="none" xmlns="http://www.w3.org/2000/svg">
<g clip-path="url(#clip0_727_1563)">
<path fill-rule="evenodd" clip-rule="evenodd" d="M93 0V65H0V0H93Z" fill="black"/>
<path fill-rule="evenodd" clip-rule="evenodd" d="M90.0183 19.7124C89.6744 18.1036 89.1673 16.564 88.5186 15.1142C86.2941 11.2281 82.3556 8.63671 77.8578 8.61983C70.8846 8.5937 65.2122 14.7647 65.1883 22.4018C65.1858 23.1912 65.2475 23.9638 65.3613 24.7173C65.3643 22.4345 66.5931 20.467 68.3643 19.5594C70.0256 18.5452 71.92 17.9245 73.9492 17.8211C80.9568 17.4634 86.902 23.3954 87.2286 31.0701C87.3822 34.6796 86.2653 38.0316 84.3097 40.6067C87.0914 37.7186 89.1141 33.9632 90.0183 29.7357V46.1848H74.4826C76.1911 45.8125 77.8211 45.2022 79.3417 44.3866C82.8905 41.9503 85.2566 37.6369 85.2721 32.711C85.2959 25.0733 79.6613 18.8609 72.688 18.8348C71.9677 18.8321 71.2624 18.8996 70.5739 19.0243C72.6582 19.0275 74.4547 20.3728 75.2834 22.3131C76.2095 24.1325 76.7762 26.2079 76.8706 28.4297C77.1972 36.1044 71.7808 42.6151 64.7732 42.9733C61.4775 43.1415 58.4174 41.9177 56.0656 39.7759C58.8513 42.9945 62.5224 45.2849 66.6503 46.1843H50.6885V26.9194C50.9286 29.5577 51.5952 32.0582 52.6142 34.3361C54.8388 38.2227 58.7773 40.8136 63.275 40.831C70.2483 40.8566 75.9207 34.6861 75.9445 27.049C75.947 26.2596 75.8854 25.4871 75.7715 24.7336C75.7685 27.0163 74.5402 28.9839 72.7686 29.8914C71.1068 30.9057 69.2123 31.5263 67.1837 31.6298C60.1761 31.9874 54.2308 26.0554 53.9042 18.3813C53.7506 14.7718 54.8676 11.4198 56.8232 8.84468C53.4399 12.3573 51.1791 17.1525 50.688 22.5194V2.95459H68.5626C66.1537 3.21754 63.8705 3.94761 61.7902 5.06313C58.2419 7.49996 55.8757 11.8134 55.8603 16.7393C55.8364 24.377 61.4705 30.5894 68.4443 30.615C69.1646 30.6177 69.87 30.5502 70.5585 30.4255C68.4741 30.4222 66.6776 29.077 65.849 27.1367C64.9229 25.3172 64.3562 23.2419 64.2617 21.0201C63.9351 13.3454 69.3515 6.83359 76.3591 6.47645C79.6549 6.30822 82.715 7.53153 85.0668 9.67328C81.8595 5.96796 77.481 3.49193 72.5807 2.95459H90.0179L90.0183 19.7124Z" fill="#AF78FE"/>
<path fill-rule="evenodd" clip-rule="evenodd" d="M39.7564 2.95459V30.7897H23.9502L38.879 2.95459H39.7564Z" fill="#AF78FE"/>
<path fill-rule="evenodd" clip-rule="evenodd" d="M39.7564 42.7626V46.1848H15.6929L17.5277 42.7626H39.7564Z" fill="#AF78FE"/>
<path fill-rule="evenodd" clip-rule="evenodd" d="M25.3971 2.95459L2.98193 46.0264V2.95459H25.3971Z" fill="#AF78FE"/>
<path fill-rule="evenodd" clip-rule="evenodd" d="M2.98193 62.0449V49.1383H90.0183V62.0449H2.98193Z" fill="#AF78FE"/>
<path fill-rule="evenodd" clip-rule="evenodd" d="M70.5671 29.5299C72.9904 29.5299 74.9545 27.3784 74.9545 24.7249C74.9545 22.0713 72.9904 19.9198 70.5671 19.9198C68.1442 19.9198 66.1797 22.0708 66.1797 24.7249C66.1797 27.3789 68.1437 29.5299 70.5671 29.5299Z" fill="black"/>
<path fill-rule="evenodd" clip-rule="evenodd" d="M8.60383 58.6412L7.98196 60.2129H4.48389L8.26779 51.0726H13.3799L17.2141 60.2129H13.7836L13.1274 58.6412H8.60383Z" fill="black"/>
<path fill-rule="evenodd" clip-rule="evenodd" d="M12.4549 56.8615H9.32715L10.8572 52.9014H10.891L12.4549 56.8615Z" fill="#AF78FE"/>
<path fill-rule="evenodd" clip-rule="evenodd" d="M23.1418 60.2129H19.7785V53.1942H16.5498V51.0726H26.539V53.1942H23.1418V60.2129Z" fill="black"/>
<path fill-rule="evenodd" clip-rule="evenodd" d="M30.5411 58.0929H35.8049V60.2129H27.1777V51.0726H30.5411V58.0929Z" fill="black"/>
<path fill-rule="evenodd" clip-rule="evenodd" d="M40.0477 58.6412L39.4258 60.2129H35.9277L39.7116 51.0726H44.8238L48.6579 60.2129H45.2274L44.5718 58.6412H40.0477Z" fill="black"/>
<path fill-rule="evenodd" clip-rule="evenodd" d="M43.8992 56.8615H40.771L42.3016 52.9014H42.3354L43.8992 56.8615Z" fill="#AF78FE"/>
<path fill-rule="evenodd" clip-rule="evenodd" d="M52.3658 60.2129H49.0029V51.0726H54.6867L58.3026 58.0929H58.4368L58.235 51.0726H61.5984V60.2129H55.8639L52.2987 53.1942H52.1645L52.3658 60.2129Z" fill="black"/>
<path fill-rule="evenodd" clip-rule="evenodd" d="M68.7527 60.2129H65.3893V53.1942H62.1606V51.0726H72.1498V53.1942H68.7527V60.2129Z" fill="black"/>
<path fill-rule="evenodd" clip-rule="evenodd" d="M76.2193 60.2129H72.856V51.0726H76.2193V60.2129Z" fill="black"/>
<path fill-rule="evenodd" clip-rule="evenodd" d="M88.6133 56.752V57.0198C88.6133 58.0194 88.5964 58.921 87.4531 59.6156C86.3093 60.2983 84.9139 60.2864 83.4505 60.2864C80.02 60.2864 77.5146 60.1639 77.5146 56.8255V54.4616C77.5146 51.4384 79.7511 51.0007 83.4505 51.0007C86.9148 51.0007 88.5293 51.2561 88.5964 53.9983V54.3511H85.1322V53.9983C85.0149 53.1817 84.224 53.1212 83.0806 53.1212C81.1638 53.1212 80.9784 53.5475 80.9784 54.8514V56.2773C80.9784 57.6427 81.0624 58.1669 83.0806 58.1669C84.4765 58.1669 85.1491 58.0934 85.1491 57.0209V56.7531H88.6133V56.752Z" fill="black"/>
<path fill-rule="evenodd" clip-rule="evenodd" d="M86.3809 5.23296C86.3809 4.41251 86.9843 3.75159 87.733 3.75159C88.4786 3.75159 89.0856 4.41251 89.0856 5.23296C89.0856 6.05285 88.4786 6.71378 87.733 6.71378C86.9843 6.71378 86.3809 6.05285 86.3809 5.23296Z" fill="black"/>
<path fill-rule="evenodd" clip-rule="evenodd" d="M88.7763 5.23295C88.7763 4.59924 88.304 4.09021 87.7324 4.09021C87.1503 4.09021 86.689 4.59924 86.689 5.23295C86.689 5.86665 87.1503 6.37569 87.7324 6.37569C88.304 6.37569 88.7763 5.86611 88.7763 5.23295Z" fill="#AF78FE"/>
<path fill-rule="evenodd" clip-rule="evenodd" d="M88.4075 6.04529H88.0596L87.733 5.38872H87.4596V6.04529H87.1509V4.4436H87.8821C88.2196 4.4436 88.4503 4.51002 88.4503 4.93304C88.4503 5.22866 88.3121 5.34952 88.0526 5.36857L88.4075 6.04529Z" fill="black"/>
<path fill-rule="evenodd" clip-rule="evenodd" d="M87.889 5.13174C88.052 5.13555 88.141 5.09309 88.141 4.89111C88.141 4.70056 87.9566 4.70056 87.8144 4.70056H87.4595V5.13174H87.889Z" fill="#AF78FE"/>
</g>
<defs>
<clipPath id="clip0_727_1563">
<rect width="93" height="65" fill="white"/>
</clipPath>
</defs>
</svg>
