<svg width="1500" height="1500" viewBox="0 0 1500 1500" fill="none" xmlns="http://www.w3.org/2000/svg">
<g clip-path="url(#clip0_708_1090)">
<rect width="1500" height="1500" fill="#AF78FE"/>
<rect x="152" y="152" width="1196" height="1196" fill="#FFFF42" stroke="black" stroke-width="4"/>
<path d="M748.37 451.455L750 453.747L751.63 451.455L923.648 209.526L915.322 502.774L915.24 505.66L917.971 504.722L1204.61 406.247L1018.97 638.427L1017.09 640.777L1019.99 641.6L1311.68 724.5L1019.99 807.4L1017.09 808.223L1018.97 810.573L1204.61 1042.75L917.971 944.278L915.24 943.34L915.322 946.226L923.648 1239.47L751.63 997.545L750 995.253L748.37 997.545L576.352 1239.47L584.678 946.226L584.76 943.34L582.029 944.278L295.394 1042.75L481.028 810.573L482.907 808.223L480.012 807.4L188.316 724.5L480.012 641.6L482.907 640.777L481.028 638.427L295.394 406.247L582.029 504.722L584.76 505.66L584.678 502.774L576.352 209.526L748.37 451.455Z" fill="#F9F5F1" stroke="black" stroke-width="4"/>
<path d="M833.334 1609.52H514.236V1259.2C514.236 1259.2 432.716 1099.66 424.037 960.91L385.9 827.378C385.9 827.378 372.026 797.893 404.97 690.367C404.97 690.367 410.166 640.072 441.391 659.139C441.391 659.139 460.461 667.815 460.461 690.367L489.946 530.803C489.946 530.803 557.595 497.862 552.376 626.198L550.657 686.911L567.987 516.935C567.987 516.935 595.733 457.982 621.762 501.345L630.414 645.268L637.376 697.303C637.376 697.303 647.768 570.707 746.618 508.277C746.618 508.277 788.238 497.862 746.618 589.777L706.738 695.563L746.618 842.989L817.72 1179.42L818.48 1200.07L833.334 1609.52Z" fill="#FF34A3"/>
<path d="M743.161 1609.52C761.092 1433.53 665.521 1254.16 665.521 1254.16L808.263 1199.14L818.478 1200.07L833.333 1609.52H743.161Z" fill="#F21652"/>
<path d="M494.527 648.977C494.527 648.977 524.266 656.41 540.622 631.132" stroke="black" stroke-width="4" stroke-linecap="round"/>
<path d="M437.348 656.837C437.348 656.837 469.721 667.243 462.782 733.147L454.69 770.142L466.25 839.516C466.25 839.516 499.78 897.32 499.78 919.287" stroke="black" stroke-width="4" stroke-linecap="round"/>
<path d="M546.025 711.177C562.213 627.934 543.711 555.093 543.711 555.093C526.369 510.005 489.951 530.815 489.951 530.815L460.469 690.367" stroke="black" stroke-width="4" stroke-linecap="round"/>
<path d="M610.772 488.039C610.772 488.039 628.114 500.753 624.647 535.44C624.647 535.44 631.582 691.525 637.364 697.303" stroke="black" stroke-width="4" stroke-linecap="round"/>
<path d="M413.066 795.579C413.066 795.579 431.565 792.108 445.44 775.923" stroke="black" stroke-width="4" stroke-linecap="round"/>
<path d="M462.781 854.545C462.781 854.545 447.753 874.2 431.564 888.075" stroke="black" stroke-width="4" stroke-linecap="round"/>
<path d="M581.867 974.784C581.867 974.784 617.708 974.784 641.989 1037.22" stroke="black" stroke-width="4" stroke-linecap="round"/>
<path d="M1090.38 619.113C1156.06 743.884 1070.27 909.053 898.765 988.033C727.258 1067.01 534.983 1029.89 469.306 905.126C403.626 780.355 489.415 615.186 660.919 536.207C832.426 457.227 1024.7 494.345 1090.38 619.113Z" fill="white"/>
<path d="M845.047 499.236C786.053 499.236 723.096 512.486 662.786 540.261C566.385 584.654 492.074 660.508 464.005 743.17C444.788 799.765 447.988 855.05 473.255 903.049C537.739 1025.56 727.786 1061.86 896.9 983.983C993.301 939.588 1067.61 863.734 1095.68 781.069C1114.9 724.477 1111.7 669.189 1086.43 621.193C1044.94 542.375 951.466 499.236 845.047 499.236ZM714.904 1033.84C605.108 1033.84 508.413 988.994 465.359 907.206C438.924 856.984 435.535 799.273 455.556 740.303C484.83 654.096 559.002 578.231 659.054 532.157C832.403 452.321 1027.66 490.402 1094.33 617.039C1120.76 667.255 1124.15 724.968 1104.13 783.939C1074.85 870.143 1000.68 946.011 900.629 992.085C839.242 1020.35 775.102 1033.84 714.904 1033.84Z" fill="black"/>
<path d="M1072.4 602.399C1138.08 727.167 1052.29 892.339 880.788 971.319C709.284 1050.3 517.008 1013.18 451.329 888.409C385.652 763.641 471.441 598.472 642.945 519.492C814.452 440.513 1006.72 477.631 1072.4 602.399Z" fill="black"/>
<path d="M876.582 659.694C901.64 707.296 868.91 770.314 803.475 800.447C738.04 830.58 664.68 816.418 639.622 768.816C614.564 721.211 647.294 658.196 712.729 628.063C778.164 597.93 851.521 612.09 876.582 659.694Z" fill="#A665D6"/>
<path d="M823.454 684.159C837.275 710.418 819.224 745.179 783.129 761.8C747.035 778.42 706.569 770.608 692.748 744.349C678.927 718.093 696.981 683.335 733.076 666.711C769.167 650.091 809.633 657.9 823.454 684.159Z" fill="#FFFF42"/>
<path d="M771.931 662.417C759.996 662.417 747.209 665.113 734.939 670.763C715.512 679.709 700.57 694.902 694.968 711.402C691.241 722.371 691.838 733.048 696.696 742.274C709.407 766.425 747.341 773.364 781.26 757.747C800.689 748.8 815.632 733.61 821.234 717.11C824.958 706.139 824.363 695.464 819.506 686.238C811.39 670.819 792.994 662.417 771.931 662.417ZM744.53 774.93C720.099 774.93 698.479 764.812 688.8 746.428C682.777 734.982 681.988 721.879 686.519 708.532C692.989 689.477 709.277 672.759 731.209 662.658C769.364 645.087 812.514 653.8 827.398 682.082C833.424 693.527 834.213 706.633 829.68 719.98C823.212 739.03 806.924 755.751 784.992 765.851C771.642 771.998 757.68 774.93 744.53 774.93Z" fill="black"/>
<path d="M786.109 891.135C780.875 891.135 775.906 888.044 773.76 882.913C770.908 876.098 774.119 868.259 780.937 865.403C803.554 855.939 823.655 846.36 842.389 836.118C936.809 784.504 982.274 726.493 981.382 658.768C981.049 633.377 971.473 612.597 952.105 595.222C905.113 553.084 812.928 544.53 765.853 549.043C758.52 549.752 751.961 544.356 751.258 536.999C750.551 529.64 755.944 523.105 763.301 522.401C816.94 517.261 916.241 527.111 969.974 575.301C994.873 597.627 1007.71 625.594 1008.15 658.414C1009.18 736.985 959.159 802.791 855.227 859.601C835.669 870.293 814.75 880.266 791.27 890.093C789.583 890.799 787.832 891.135 786.109 891.135Z" fill="white"/>
<path d="M689.197 860.932C688.802 860.932 688.405 860.911 688.008 860.876C654.012 857.882 609.057 842.748 584.827 809.259C560.637 775.832 570.967 734.716 591.939 708.793C596.59 703.049 605.015 702.16 610.759 706.808C616.508 711.457 617.397 719.882 612.746 725.628C601.886 739.055 588.348 768.473 606.508 793.572C625.46 819.763 662.249 831.741 690.357 834.217C697.719 834.868 703.162 841.362 702.512 848.724C701.897 855.686 696.059 860.932 689.197 860.932Z" fill="white"/>
<path d="M1043.19 867.547V867.57C1042.63 872.074 1040.62 877.114 1036.28 882.557C1034.42 884.901 1032.1 887.329 1029.3 889.808C1029.3 889.808 1010.76 906.288 989.571 932.873C983.26 940.792 976.704 949.623 970.345 959.17C970.345 959.17 914.854 1191.57 784.779 1234.93C784.779 1234.93 726.989 1238.77 692.284 1242.25C692.284 1242.25 692.016 1239.26 691.616 1234.08C689.32 1203.2 682.984 1094.17 706.738 1071.89C706.738 1071.89 751.814 981.717 861.08 964.387C861.08 964.387 926.986 818.7 1032.77 844.706C1032.77 844.706 1044.91 853.608 1043.19 867.547Z" fill="#FF34A3"/>
<path d="M1043.19 867.547V867.57C1042.63 872.074 1040.62 877.114 1036.27 882.557C1034.42 884.901 1032.1 887.329 1029.29 889.808C1029.29 889.808 1010.76 906.288 989.571 932.873C983.259 940.792 976.704 949.623 970.345 959.17C970.345 959.17 914.854 1191.57 784.778 1234.93C784.778 1234.93 726.988 1238.77 692.283 1242.25C692.283 1242.25 692.016 1239.26 691.615 1234.08C749.762 1211.65 861.591 1158.34 907.895 1066.81C907.895 1066.81 964.39 895.808 1043.19 867.547Z" fill="#F21652"/>
<path d="M699.721 1108.43C699.721 1108.43 817.25 983.884 861.083 964.379C861.083 964.379 717.566 993.94 699.721 1108.43Z" fill="#F21652"/>
<path d="M650.652 1252.66C650.652 1252.66 760.683 1248.2 817.187 1215.49" stroke="black" stroke-width="4" stroke-linecap="round"/>
<path d="M706.732 1071.9C706.732 1071.9 757.605 979.409 861.083 964.381C861.083 964.381 916 834.888 1023.52 841.827C1023.52 841.827 1038.55 842.981 1040.86 858.012" stroke="black" stroke-width="4" stroke-linecap="round"/>
</g>
<defs>
<clipPath id="clip0_708_1090">
<rect width="1500" height="1500" fill="white"/>
</clipPath>
</defs>
</svg>
