<svg width="311" height="51" viewBox="0 0 311 51" fill="none" xmlns="http://www.w3.org/2000/svg">
<path d="M19.16 50.4C7.47 50.4 0.75 44.24 0.75 33.74V21H16.15V32.06C16.15 34.93 17.41 36.4 19.65 36.4C21.89 36.4 23.15 34.93 23.15 32.06V-3.33786e-06H38.55V33.74C38.55 43.89 30.99 50.4 19.16 50.4ZM52.9946 50.12C45.2946 50.12 41.3746 45.64 41.3746 37.1V13.3H56.0746V33.25C56.0746 35.49 56.9846 36.82 59.0146 36.82C61.2546 36.82 62.6546 35.07 62.6546 31.99V13.3H77.3546V49H62.6546L66.0846 39.76H64.3346C62.4446 46.62 58.7346 50.12 52.9946 50.12ZM81.5727 49V-3.33786e-06H96.2727V21.63L93.1927 27.23H94.9427L106.423 13.3H121.543L107.963 29.47L121.193 49H105.723L98.9327 38.43L96.2727 41.58V49H81.5727ZM136.429 50.12C129.639 50.12 124.109 47.74 120.819 43.05C118.649 39.97 117.459 35.98 117.459 31.15C117.459 26.39 118.719 22.4 120.819 19.39C124.109 14.63 129.709 12.18 136.219 12.18C147.769 12.18 154.209 19.46 154.209 31.92V34.72H131.109C131.389 36.12 131.739 37.24 132.299 38.08C133.139 39.27 134.399 39.83 136.149 39.83C137.759 39.83 139.159 39.13 139.719 37.59H154.419C153.229 45.29 146.299 50.12 136.429 50.12ZM131.179 27.02H140.909C140.769 23.8 139.229 22.26 136.289 22.26C134.399 22.26 133.139 22.75 132.229 24.08C131.669 24.85 131.319 25.83 131.179 27.02ZM180.765 50.12C174.885 50.12 171.175 46.13 169.145 39.76H167.395L170.825 49H156.125V-3.33786e-06H170.825V13.3L167.395 22.54H169.145C171.175 16.17 174.885 12.18 180.765 12.18C185.315 12.18 189.025 14.21 191.475 17.78C193.715 21.07 195.045 25.62 195.045 31.15C195.045 36.68 193.715 41.23 191.475 44.52C189.025 48.09 185.315 50.12 180.765 50.12ZM170.685 31.15C170.685 33.04 171.175 34.58 171.945 35.7C172.785 36.89 174.045 37.52 175.515 37.52C176.985 37.52 178.245 36.89 179.085 35.7C179.855 34.58 180.345 33.04 180.345 31.15C180.345 29.26 179.855 27.72 179.085 26.6C178.245 25.41 176.985 24.78 175.515 24.78C174.045 24.78 172.785 25.41 171.945 26.6C171.175 27.72 170.685 29.26 170.685 31.15ZM214.549 50.12C207.479 50.12 201.669 47.25 198.309 42.35C196.209 39.27 195.019 35.49 195.019 31.15C195.019 26.81 196.209 23.03 198.309 19.95C201.669 15.05 207.479 12.18 214.549 12.18C221.619 12.18 227.429 15.05 230.789 19.95C232.889 23.03 234.079 26.81 234.079 31.15C234.079 35.49 232.889 39.27 230.789 42.35C227.429 47.25 221.619 50.12 214.549 50.12ZM209.719 31.15C209.719 32.97 210.139 34.44 210.909 35.56C211.749 36.82 213.009 37.52 214.549 37.52C216.089 37.52 217.349 36.82 218.189 35.56C218.959 34.44 219.379 32.97 219.379 31.15C219.379 29.33 218.959 27.86 218.189 26.74C217.349 25.48 216.089 24.78 214.549 24.78C213.009 24.78 211.749 25.48 210.909 26.74C210.139 27.86 209.719 29.33 209.719 31.15ZM231.356 49L241.926 31.22L231.356 13.3H247.806L251.516 21.49L251.656 25.69H253.336L253.476 21.49L257.186 13.3H273.636L263.066 31.22L273.636 49H257.186L253.476 41.37L253.336 37.17H251.656L251.516 41.37L247.806 49H231.356ZM285.919 50.12C281.369 50.12 277.659 48.09 275.209 44.52C272.969 41.23 271.639 36.68 271.639 31.15C271.639 25.62 272.969 21.07 275.209 17.78C277.659 14.21 281.369 12.18 285.919 12.18C291.799 12.18 295.509 16.17 297.539 22.54H299.289L295.859 13.3V-3.33786e-06H310.559V49H295.859L299.289 39.76H297.539C295.509 46.13 291.799 50.12 285.919 50.12ZM286.339 31.15C286.339 33.04 286.829 34.58 287.599 35.7C288.439 36.89 289.699 37.52 291.169 37.52C292.639 37.52 293.899 36.89 294.739 35.7C295.509 34.58 295.999 33.04 295.999 31.15C295.999 29.26 295.509 27.72 294.739 26.6C293.899 25.41 292.639 24.78 291.169 24.78C289.699 24.78 288.439 25.41 287.599 26.6C286.829 27.72 286.339 29.26 286.339 31.15Z" fill="#DDDDDD"/>
</svg>
