<svg width="437" height="120" viewBox="0 0 437 120" fill="none" xmlns="http://www.w3.org/2000/svg">
<rect x="1.5" y="1.5" width="117" height="117" rx="2.5" fill="#AF78FE" stroke="black" stroke-width="3"/>
<circle cx="60" cy="60" r="48.5" fill="black" stroke="black" stroke-width="3"/>
<circle cx="60" cy="60" r="12" fill="#AF78FE"/>
<circle cx="60" cy="60" r="2" fill="black"/>
<path d="M141.16 119.9C129.47 119.9 122.75 113.74 122.75 103.24V90.5H138.15V101.56C138.15 104.43 139.41 105.9 141.65 105.9C143.89 105.9 145.15 104.43 145.15 101.56V69.5H160.55V103.24C160.55 113.39 152.99 119.9 141.16 119.9ZM174.995 119.62C167.295 119.62 163.375 115.14 163.375 106.6V82.8H178.075V102.75C178.075 104.99 178.985 106.32 181.015 106.32C183.255 106.32 184.655 104.57 184.655 101.49V82.8H199.355V118.5H184.655L188.085 109.26H186.335C184.445 116.12 180.735 119.62 174.995 119.62ZM203.573 118.5V69.5H218.273V91.13L215.193 96.73H216.943L228.423 82.8H243.543L229.963 98.97L243.193 118.5H227.723L220.933 107.93L218.273 111.08V118.5H203.573ZM258.429 119.62C251.639 119.62 246.109 117.24 242.819 112.55C240.649 109.47 239.459 105.48 239.459 100.65C239.459 95.89 240.719 91.9 242.819 88.89C246.109 84.13 251.709 81.68 258.219 81.68C269.769 81.68 276.209 88.96 276.209 101.42V104.22H253.109C253.389 105.62 253.739 106.74 254.299 107.58C255.139 108.77 256.399 109.33 258.149 109.33C259.759 109.33 261.159 108.63 261.719 107.09H276.419C275.229 114.79 268.299 119.62 258.429 119.62ZM253.179 96.52H262.909C262.769 93.3 261.229 91.76 258.289 91.76C256.399 91.76 255.139 92.25 254.229 93.58C253.669 94.35 253.319 95.33 253.179 96.52ZM302.765 119.62C296.885 119.62 293.175 115.63 291.145 109.26H289.395L292.825 118.5H278.125V69.5H292.825V82.8L289.395 92.04H291.145C293.175 85.67 296.885 81.68 302.765 81.68C307.315 81.68 311.025 83.71 313.475 87.28C315.715 90.57 317.045 95.12 317.045 100.65C317.045 106.18 315.715 110.73 313.475 114.02C311.025 117.59 307.315 119.62 302.765 119.62ZM292.685 100.65C292.685 102.54 293.175 104.08 293.945 105.2C294.785 106.39 296.045 107.02 297.515 107.02C298.985 107.02 300.245 106.39 301.085 105.2C301.855 104.08 302.345 102.54 302.345 100.65C302.345 98.76 301.855 97.22 301.085 96.1C300.245 94.91 298.985 94.28 297.515 94.28C296.045 94.28 294.785 94.91 293.945 96.1C293.175 97.22 292.685 98.76 292.685 100.65ZM336.549 119.62C329.479 119.62 323.669 116.75 320.309 111.85C318.209 108.77 317.019 104.99 317.019 100.65C317.019 96.31 318.209 92.53 320.309 89.45C323.669 84.55 329.479 81.68 336.549 81.68C343.619 81.68 349.429 84.55 352.789 89.45C354.889 92.53 356.079 96.31 356.079 100.65C356.079 104.99 354.889 108.77 352.789 111.85C349.429 116.75 343.619 119.62 336.549 119.62ZM331.719 100.65C331.719 102.47 332.139 103.94 332.909 105.06C333.749 106.32 335.009 107.02 336.549 107.02C338.089 107.02 339.349 106.32 340.189 105.06C340.959 103.94 341.379 102.47 341.379 100.65C341.379 98.83 340.959 97.36 340.189 96.24C339.349 94.98 338.089 94.28 336.549 94.28C335.009 94.28 333.749 94.98 332.909 96.24C332.139 97.36 331.719 98.83 331.719 100.65ZM353.356 118.5L363.926 100.72L353.356 82.8H369.806L373.516 90.99L373.656 95.19H375.336L375.476 90.99L379.186 82.8H395.636L385.066 100.72L395.636 118.5H379.186L375.476 110.87L375.336 106.67H373.656L373.516 110.87L369.806 118.5H353.356ZM407.919 119.62C403.369 119.62 399.659 117.59 397.209 114.02C394.969 110.73 393.639 106.18 393.639 100.65C393.639 95.12 394.969 90.57 397.209 87.28C399.659 83.71 403.369 81.68 407.919 81.68C413.799 81.68 417.509 85.67 419.539 92.04H421.289L417.859 82.8V69.5H432.559V118.5H417.859L421.289 109.26H419.539C417.509 115.63 413.799 119.62 407.919 119.62ZM408.339 100.65C408.339 102.54 408.829 104.08 409.599 105.2C410.439 106.39 411.699 107.02 413.169 107.02C414.639 107.02 415.899 106.39 416.739 105.2C417.509 104.08 417.999 102.54 417.999 100.65C417.999 98.76 417.509 97.22 416.739 96.1C415.899 94.91 414.639 94.28 413.169 94.28C411.699 94.28 410.439 94.91 409.599 96.1C408.829 97.22 408.339 98.76 408.339 100.65Z" fill="black"/>
</svg>
