<svg width="178" height="29" viewBox="0 0 178 29" fill="none" xmlns="http://www.w3.org/2000/svg">
<path d="M10.52 28.8C3.84 28.8 1.49012e-08 25.28 1.49012e-08 19.28V12H8.8V18.32C8.8 19.96 9.52 20.8 10.8 20.8C12.08 20.8 12.8 19.96 12.8 18.32V-1.90735e-06H21.6V19.28C21.6 25.08 17.28 28.8 10.52 28.8ZM29.8541 28.64C25.4541 28.64 23.2141 26.08 23.2141 21.2V7.6H31.6141V19C31.6141 20.28 32.1341 21.04 33.2941 21.04C34.5741 21.04 35.3741 20.04 35.3741 18.28V7.6H43.7741V28H35.3741L37.3341 22.72H36.3341C35.2541 26.64 33.1341 28.64 29.8541 28.64ZM46.1844 28V-1.90735e-06H54.5844V12.36L52.8244 15.56H53.8244L60.3844 7.6H69.0244L61.2644 16.84L68.8244 28H59.9844L56.1044 21.96L54.5844 23.76V28H46.1844ZM77.5306 28.64C73.6506 28.64 70.4906 27.28 68.6106 24.6C67.3706 22.84 66.6906 20.56 66.6906 17.8C66.6906 15.08 67.4106 12.8 68.6106 11.08C70.4906 8.36 73.6906 6.96 77.4106 6.96C84.0106 6.96 87.6906 11.12 87.6906 18.24V19.84H74.4906C74.6506 20.64 74.8506 21.28 75.1706 21.76C75.6506 22.44 76.3706 22.76 77.3706 22.76C78.2906 22.76 79.0906 22.36 79.4106 21.48H87.8106C87.1306 25.88 83.1706 28.64 77.5306 28.64ZM74.5306 15.44H80.0906C80.0106 13.6 79.1306 12.72 77.4506 12.72C76.3706 12.72 75.6506 13 75.1306 13.76C74.8106 14.2 74.6106 14.76 74.5306 15.44ZM102.866 28.64C99.5059 28.64 97.3859 26.36 96.2259 22.72H95.2259L97.1859 28H88.7859V-1.90735e-06H97.1859V7.6L95.2259 12.88H96.2259C97.3859 9.24 99.5059 6.96 102.866 6.96C105.466 6.96 107.586 8.12 108.986 10.16C110.266 12.04 111.026 14.64 111.026 17.8C111.026 20.96 110.266 23.56 108.986 25.44C107.586 27.48 105.466 28.64 102.866 28.64ZM97.1059 17.8C97.1059 18.88 97.3859 19.76 97.8259 20.4C98.3059 21.08 99.0259 21.44 99.8659 21.44C100.706 21.44 101.426 21.08 101.906 20.4C102.346 19.76 102.626 18.88 102.626 17.8C102.626 16.72 102.346 15.84 101.906 15.2C101.426 14.52 100.706 14.16 99.8659 14.16C99.0259 14.16 98.3059 14.52 97.8259 15.2C97.3859 15.84 97.1059 16.72 97.1059 17.8ZM122.171 28.64C118.131 28.64 114.811 27 112.891 24.2C111.691 22.44 111.011 20.28 111.011 17.8C111.011 15.32 111.691 13.16 112.891 11.4C114.811 8.6 118.131 6.96 122.171 6.96C126.211 6.96 129.531 8.6 131.451 11.4C132.651 13.16 133.331 15.32 133.331 17.8C133.331 20.28 132.651 22.44 131.451 24.2C129.531 27 126.211 28.64 122.171 28.64ZM119.411 17.8C119.411 18.84 119.651 19.68 120.091 20.32C120.571 21.04 121.291 21.44 122.171 21.44C123.051 21.44 123.771 21.04 124.251 20.32C124.691 19.68 124.931 18.84 124.931 17.8C124.931 16.76 124.691 15.92 124.251 15.28C123.771 14.56 123.051 14.16 122.171 14.16C121.291 14.16 120.571 14.56 120.091 15.28C119.651 15.92 119.411 16.76 119.411 17.8ZM131.775 28L137.815 17.84L131.775 7.6H141.175L143.295 12.28L143.375 14.68H144.335L144.415 12.28L146.535 7.6H155.935L149.895 17.84L155.935 28H146.535L144.415 23.64L144.335 21.24H143.375L143.295 23.64L141.175 28H131.775ZM162.954 28.64C160.354 28.64 158.234 27.48 156.834 25.44C155.554 23.56 154.794 20.96 154.794 17.8C154.794 14.64 155.554 12.04 156.834 10.16C158.234 8.12 160.354 6.96 162.954 6.96C166.314 6.96 168.434 9.24 169.594 12.88H170.594L168.634 7.6V-1.90735e-06H177.034V28H168.634L170.594 22.72H169.594C168.434 26.36 166.314 28.64 162.954 28.64ZM163.194 17.8C163.194 18.88 163.474 19.76 163.914 20.4C164.394 21.08 165.114 21.44 165.954 21.44C166.794 21.44 167.514 21.08 167.994 20.4C168.434 19.76 168.714 18.88 168.714 17.8C168.714 16.72 168.434 15.84 167.994 15.2C167.514 14.52 166.794 14.16 165.954 14.16C165.114 14.16 164.394 14.52 163.914 15.2C163.474 15.84 163.194 16.72 163.194 17.8Z" fill="black"/>
</svg>
