<svg width="437" height="120" viewBox="0 0 437 120" fill="none" xmlns="http://www.w3.org/2000/svg">
<rect x="1.5" y="1.5" width="117" height="117" rx="2.5" fill="#AF78FE" stroke="black" stroke-width="3"/>
<circle cx="60" cy="60" r="48.5" fill="black" stroke="black" stroke-width="3"/>
<path d="M60 21.5C60 20.6716 60.6718 19.9971 61.4997 20.0281C66.2408 20.206 70.9167 21.2261 75.3073 23.0448C80.1604 25.055 84.5699 28.0014 88.2843 31.7157C91.9986 35.4301 94.945 39.8396 96.9552 44.6927C98.7739 49.0833 99.794 53.7592 99.9719 58.5003C100.003 59.3282 99.3284 60 98.5 60C97.6716 60 97.0032 59.3281 96.9696 58.5004C96.7933 54.1534 95.8514 49.8674 94.1835 45.8407C92.3241 41.3517 89.5987 37.2728 86.163 33.8371C82.7272 30.4013 78.6483 27.6759 74.1593 25.8165C70.1326 24.1486 65.8466 23.2067 61.4996 23.0304C60.6719 22.9968 60 22.3284 60 21.5Z" fill="white"/>
<path d="M60 98.5C60 99.3284 59.3282 100.003 58.5003 99.9719C53.7592 99.794 49.0833 98.7739 44.6927 96.9552C39.8396 94.945 35.4301 91.9986 31.7157 88.2843C28.0014 84.5699 25.055 80.1604 23.0448 75.3073C21.2261 70.9166 20.206 66.2408 20.0281 61.4996C19.9971 60.6718 20.6716 60 21.5 60C22.3284 60 22.9968 60.6719 23.0304 61.4996C23.2067 65.8466 24.1486 70.1326 25.8165 74.1593C27.6759 78.6483 30.4013 82.7272 33.837 86.1629C37.2728 89.5987 41.3517 92.3241 45.8407 94.1835C49.8674 95.8514 54.1534 96.7933 58.5004 96.9696C59.3281 97.0032 60 97.6716 60 98.5Z" fill="white"/>
<path d="M60 31.5C60 30.6716 60.672 29.9961 61.4994 30.0375C64.9268 30.209 68.3032 30.9675 71.4805 32.2836C75.1203 33.7913 78.4274 36.001 81.2132 38.7868C83.999 41.5726 86.2087 44.8797 87.7164 48.5195C89.0325 51.6968 89.791 55.0732 89.9625 58.5006C90.0039 59.328 89.3284 60 88.5 60C87.6716 60 87.0043 59.3279 86.9583 58.5007C86.7897 55.4675 86.11 52.4808 84.9447 49.6676C83.5879 46.3918 81.5991 43.4153 79.0919 40.9081C76.5847 38.4009 73.6082 36.4121 70.3325 35.0553C67.5192 33.89 64.5325 33.2103 61.4993 33.0417C60.6721 32.9957 60 32.3284 60 31.5Z" fill="white"/>
<path d="M60 88.5C60 89.3284 59.328 90.0039 58.5006 89.9625C55.0732 89.791 51.6968 89.0325 48.5195 87.7164C44.8797 86.2087 41.5726 83.999 38.7868 81.2132C36.001 78.4274 33.7913 75.1203 32.2836 71.4805C30.9675 68.3032 30.209 64.9268 30.0375 61.4994C29.9961 60.672 30.6716 60 31.5 60V60C32.3284 60 32.9957 60.6721 33.0417 61.4992C33.2103 64.5325 33.89 67.5192 35.0552 70.3324C36.4121 73.6082 38.4009 76.5847 40.9081 79.0919C43.4153 81.5991 46.3918 83.5879 49.6675 84.9447C52.4808 86.11 55.4675 86.7897 58.5007 86.9583C59.3279 87.0043 60 87.6716 60 88.5V88.5Z" fill="white"/>
<circle cx="60" cy="60" r="12" fill="#AF78FE"/>
<circle cx="60" cy="60" r="2" fill="black"/>
<path d="M141.16 119.9C129.47 119.9 122.75 113.74 122.75 103.24V90.5H138.15V101.56C138.15 104.43 139.41 105.9 141.65 105.9C143.89 105.9 145.15 104.43 145.15 101.56V69.5H160.55V103.24C160.55 113.39 152.99 119.9 141.16 119.9ZM174.995 119.62C167.295 119.62 163.375 115.14 163.375 106.6V82.8H178.075V102.75C178.075 104.99 178.985 106.32 181.015 106.32C183.255 106.32 184.655 104.57 184.655 101.49V82.8H199.355V118.5H184.655L188.085 109.26H186.335C184.445 116.12 180.735 119.62 174.995 119.62ZM203.573 118.5V69.5H218.273V91.13L215.193 96.73H216.943L228.423 82.8H243.543L229.963 98.97L243.193 118.5H227.723L220.933 107.93L218.273 111.08V118.5H203.573ZM258.429 119.62C251.639 119.62 246.109 117.24 242.819 112.55C240.649 109.47 239.459 105.48 239.459 100.65C239.459 95.89 240.719 91.9 242.819 88.89C246.109 84.13 251.709 81.68 258.219 81.68C269.769 81.68 276.209 88.96 276.209 101.42V104.22H253.109C253.389 105.62 253.739 106.74 254.299 107.58C255.139 108.77 256.399 109.33 258.149 109.33C259.759 109.33 261.159 108.63 261.719 107.09H276.419C275.229 114.79 268.299 119.62 258.429 119.62ZM253.179 96.52H262.909C262.769 93.3 261.229 91.76 258.289 91.76C256.399 91.76 255.139 92.25 254.229 93.58C253.669 94.35 253.319 95.33 253.179 96.52ZM302.765 119.62C296.885 119.62 293.175 115.63 291.145 109.26H289.395L292.825 118.5H278.125V69.5H292.825V82.8L289.395 92.04H291.145C293.175 85.67 296.885 81.68 302.765 81.68C307.315 81.68 311.025 83.71 313.475 87.28C315.715 90.57 317.045 95.12 317.045 100.65C317.045 106.18 315.715 110.73 313.475 114.02C311.025 117.59 307.315 119.62 302.765 119.62ZM292.685 100.65C292.685 102.54 293.175 104.08 293.945 105.2C294.785 106.39 296.045 107.02 297.515 107.02C298.985 107.02 300.245 106.39 301.085 105.2C301.855 104.08 302.345 102.54 302.345 100.65C302.345 98.76 301.855 97.22 301.085 96.1C300.245 94.91 298.985 94.28 297.515 94.28C296.045 94.28 294.785 94.91 293.945 96.1C293.175 97.22 292.685 98.76 292.685 100.65ZM336.549 119.62C329.479 119.62 323.669 116.75 320.309 111.85C318.209 108.77 317.019 104.99 317.019 100.65C317.019 96.31 318.209 92.53 320.309 89.45C323.669 84.55 329.479 81.68 336.549 81.68C343.619 81.68 349.429 84.55 352.789 89.45C354.889 92.53 356.079 96.31 356.079 100.65C356.079 104.99 354.889 108.77 352.789 111.85C349.429 116.75 343.619 119.62 336.549 119.62ZM331.719 100.65C331.719 102.47 332.139 103.94 332.909 105.06C333.749 106.32 335.009 107.02 336.549 107.02C338.089 107.02 339.349 106.32 340.189 105.06C340.959 103.94 341.379 102.47 341.379 100.65C341.379 98.83 340.959 97.36 340.189 96.24C339.349 94.98 338.089 94.28 336.549 94.28C335.009 94.28 333.749 94.98 332.909 96.24C332.139 97.36 331.719 98.83 331.719 100.65ZM353.356 118.5L363.926 100.72L353.356 82.8H369.806L373.516 90.99L373.656 95.19H375.336L375.476 90.99L379.186 82.8H395.636L385.066 100.72L395.636 118.5H379.186L375.476 110.87L375.336 106.67H373.656L373.516 110.87L369.806 118.5H353.356ZM407.919 119.62C403.369 119.62 399.659 117.59 397.209 114.02C394.969 110.73 393.639 106.18 393.639 100.65C393.639 95.12 394.969 90.57 397.209 87.28C399.659 83.71 403.369 81.68 407.919 81.68C413.799 81.68 417.509 85.67 419.539 92.04H421.289L417.859 82.8V69.5H432.559V118.5H417.859L421.289 109.26H419.539C417.509 115.63 413.799 119.62 407.919 119.62ZM408.339 100.65C408.339 102.54 408.829 104.08 409.599 105.2C410.439 106.39 411.699 107.02 413.169 107.02C414.639 107.02 415.899 106.39 416.739 105.2C417.509 104.08 417.999 102.54 417.999 100.65C417.999 98.76 417.509 97.22 416.739 96.1C415.899 94.91 414.639 94.28 413.169 94.28C411.699 94.28 410.439 94.91 409.599 96.1C408.829 97.22 408.339 98.76 408.339 100.65Z" fill="black"/>
</svg>
