<svg width="1500" height="1500" viewBox="0 0 1500 1500" fill="none" xmlns="http://www.w3.org/2000/svg">
<g clip-path="url(#clip0_705_794)">
<rect width="1500" height="1500" fill="#FFFF42"/>
<mask id="mask0_705_794" style="mask-type:luminance" maskUnits="userSpaceOnUse" x="93" y="-16" width="479" height="260">
<path d="M104.971 -15.3019L571.381 6.96092L560.076 243.807L93.666 221.544L104.971 -15.3019Z" fill="white"/>
</mask>
<g mask="url(#mask0_705_794)">
<path d="M566.17 35.2475C580.231 76.8306 487.021 145.912 357.98 189.545C228.939 233.179 112.933 234.84 98.8715 193.257C84.8115 151.674 178.02 82.5926 307.061 38.958C436.103 -4.67519 552.108 -6.3355 566.17 35.2475Z" fill="black"/>
<path d="M566.17 35.2475C580.231 76.8306 487.021 145.912 357.98 189.545C228.939 233.179 112.933 234.84 98.8715 193.257C84.8115 151.674 178.02 82.5926 307.061 38.958C436.103 -4.67519 552.108 -6.3355 566.17 35.2475Z" stroke="black" stroke-width="4" stroke-miterlimit="10"/>
</g>
<path d="M563.634 32.4568C577.695 74.0398 484.485 143.121 355.444 186.754C226.403 230.389 110.397 232.049 96.3354 190.466C82.2753 148.883 175.484 79.8018 304.525 36.1672C433.567 -7.46596 549.572 -9.12627 563.634 32.4568Z" fill="#FF34A3"/>
<path d="M563.634 32.4568C577.695 74.0398 484.485 143.121 355.444 186.754C226.403 230.389 110.397 232.049 96.3354 190.466C82.2753 148.883 175.484 79.8018 304.525 36.1672C433.567 -7.46596 549.572 -9.12627 563.634 32.4568Z" fill="#FF34A3"/>
<path d="M563.634 32.4568C577.695 74.0398 484.485 143.121 355.444 186.754C226.403 230.389 110.397 232.049 96.3354 190.466C82.2753 148.883 175.484 79.8018 304.525 36.1672C433.567 -7.46596 549.572 -9.12627 563.634 32.4568Z" stroke="black" stroke-width="4" stroke-miterlimit="10"/>
<path d="M267.523 159.238C254.975 163.487 245.523 159.317 241.706 148.046L237.075 134.371L253.606 128.773L257.626 140.645C258.669 143.726 260.556 144.846 262.96 144.032C265.365 143.218 266.183 141.182 265.14 138.101L253.487 103.687L270.018 98.0897L282.281 134.307C285.97 145.202 280.222 154.938 267.523 159.238ZM306.37 145.749C302.688 146.995 299.125 146.862 296.409 145.52C293.895 144.277 291.903 142.104 290.834 138.949C289.74 135.718 289.826 132.757 291.168 130.041C292.709 126.923 295.706 124.149 300.261 122.02L308.647 118.092L308.214 116.815C307.324 114.185 305.415 113.743 303.386 114.43C299.855 115.625 300.874 118.882 301.026 119.333L285.172 124.701C284.587 122.973 280.106 109.247 300.018 102.504C311.965 98.4588 320.432 100.952 323.994 111.472L332.186 135.667L317.158 140.755L317.331 129.641L315.453 130.277C315.869 138.679 313.207 143.433 306.37 145.749ZM306.453 131.649C306.759 132.551 307.239 133.226 307.842 133.524C308.345 133.773 309.022 133.795 309.699 133.566C313.381 132.319 311.853 127.56 311.471 126.433L311.217 125.681L308.939 126.871C307.738 127.529 306.989 128.285 306.542 129.191C306.194 129.895 306.174 130.823 306.453 131.649ZM338.937 133.381L333.212 116.474L346.522 103.592L345.886 101.713L330.032 107.082L325.961 95.0598L360.45 83.3813L366.175 100.288L352.489 113.297L353.125 115.176L369.355 109.68L373.426 121.702L338.937 133.381ZM380.176 119.417L374.451 102.51L387.761 89.628L387.125 87.7495L371.27 93.1181L367.199 81.0958L401.688 69.4174L407.413 86.3237L393.727 99.3333L394.363 101.212L410.593 95.7161L414.664 107.738L380.176 119.417ZM427.256 83.6248L418.314 86.6525L404.299 51.4472L416.998 47.1473L427.256 83.6248ZM420.535 99.8877C419.754 97.5835 419.838 95.7685 420.785 94.4428C421.715 93.0669 423.081 92.0737 424.885 91.4631C426.638 90.8694 428.302 90.8364 429.877 91.3641C431.434 91.8417 432.603 93.2327 433.383 95.5369C434.13 97.741 434.046 99.556 433.133 100.982C432.203 102.358 430.862 103.342 429.108 103.936C427.305 104.547 425.616 104.588 424.041 104.061C422.45 103.483 421.281 102.092 420.535 99.8877Z" fill="black"/>
<path d="M1109.46 970H413.628V482.915C413.628 290.768 569.394 135 761.543 135C953.692 135 1109.46 290.768 1109.46 482.915V970Z" fill="black"/>
<path d="M1086.83 970H391V482.915C391 290.768 546.766 135 738.915 135C931.064 135 1086.83 290.768 1086.83 482.915V970Z" fill="#F9F5F1"/>
<path d="M1086.83 970H391V482.915C391 290.768 546.766 135 738.915 135C931.064 135 1086.83 290.768 1086.83 482.915V970Z" stroke="black" stroke-width="4" stroke-miterlimit="10"/>
<path d="M1471 1500.15H31L436.293 963.539H507.748H1065.71L1471 1500.15Z" fill="#AF78FE"/>
<path d="M1471 1500.15H31L436.293 963.539H507.748H1065.71L1471 1500.15Z" stroke="black" stroke-width="4" stroke-miterlimit="10"/>
<path d="M510.386 963.539L278.333 1499.62H1223.67L983.666 963L510.386 963.539Z" fill="#009C75"/>
<path d="M510.386 963.539L278.333 1499.62H1223.67L983.666 963L510.386 963.539Z" stroke="black" stroke-width="4" stroke-miterlimit="10"/>
<path d="M606.999 963.539H897.666L1020.33 1500.15H481.666L606.999 963.539Z" fill="#FFFF42"/>
<path d="M606.999 963.539H897.666L1020.33 1500.15H481.666L606.999 963.539Z" stroke="black" stroke-width="4" stroke-miterlimit="10"/>
<path d="M854.11 1500.15H647.889L690.586 963.539H811.413L854.11 1500.15Z" fill="#AF78FE"/>
<path d="M854.11 1500.15H647.889L690.586 963.539H811.413L854.11 1500.15Z" stroke="black" stroke-width="4" stroke-miterlimit="10"/>
<path d="M1185.38 915.781C1166.01 1050.73 957.599 1136.52 719.89 1107.39C482.18 1078.26 305.187 945.246 324.563 810.297C343.938 675.346 552.347 589.562 790.056 618.691C1027.77 647.819 1204.76 780.831 1185.38 915.781Z" fill="#F9F5F1"/>
<path d="M1185.38 915.781C1166.01 1050.73 957.599 1136.52 719.89 1107.39C482.18 1078.26 305.187 945.246 324.563 810.297C343.938 675.346 552.347 589.562 790.056 618.691C1027.77 647.819 1204.76 780.831 1185.38 915.781Z" stroke="black" stroke-width="5.33333" stroke-miterlimit="10"/>
<path d="M1178.27 892.769C1158.9 1027.72 950.487 1113.5 712.777 1084.37C475.068 1055.24 298.075 922.234 317.451 787.285C336.827 652.336 545.236 566.55 782.944 595.68C1020.65 624.808 1197.65 757.82 1178.27 892.769Z" fill="black"/>
<path d="M930.276 833.248C922.884 884.735 843.369 917.464 752.676 906.351C661.981 895.238 594.453 844.49 601.847 793.002C609.239 741.514 688.752 708.784 779.447 719.898C870.14 731.011 937.669 781.76 930.276 833.248Z" fill="#AF78FE"/>
<path d="M856.641 824.225C852.564 852.625 808.705 870.678 758.678 864.547C708.653 858.418 671.404 830.425 675.482 802.026C679.56 773.626 723.418 755.571 773.446 761.701C823.47 767.831 860.72 795.823 856.641 824.225Z" fill="#FFFF42"/>
<path d="M856.641 824.225C852.564 852.625 808.705 870.678 758.678 864.547C708.653 858.418 671.404 830.425 675.482 802.026C679.56 773.626 723.418 755.571 773.446 761.701C823.47 767.831 860.72 795.823 856.641 824.225Z" stroke="black" stroke-width="5.33333" stroke-miterlimit="10"/>
<path d="M900.072 674.029C976.254 705.219 1133.51 806.603 1056.1 895.904C989.96 972.215 862.45 975.261 766.873 968.587C737.522 966.536 708.29 963.103 679.242 958.745" stroke="white" stroke-width="16" stroke-miterlimit="10" stroke-linecap="round"/>
<path d="M599.16 731.75C567.312 739.135 530.588 761.238 532.123 795.407C533.728 831.179 567.761 863.924 598.205 882.523" stroke="white" stroke-width="16" stroke-miterlimit="10" stroke-linecap="round"/>
<path d="M1404.2 516.072C1404.21 516.277 1404.2 516.092 1404.2 516.072Z" fill="white"/>
<path d="M780.443 706.815C768.032 709.797 755.584 706.251 746.707 698.395C744.372 696.327 742.286 693.961 740.51 691.337C738.044 687.696 736.175 683.547 735.091 679.023C730.359 659.343 726.454 639.425 722.658 620.171C714.116 576.768 706.063 535.776 689.626 498.217C667.296 447.215 631.394 398.749 599.223 358.059C592.21 349.195 589.835 338.148 591.751 327.853C593.348 319.221 597.959 311.1 605.398 305.223C621.683 292.335 645.343 295.095 658.232 311.397C693.383 355.843 732.791 409.225 758.536 468.065C778.28 513.167 787.534 560.179 796.47 605.647C800.28 625.012 803.879 643.3 808.236 661.463C813.086 681.669 800.639 701.973 780.443 706.815Z" fill="#FF34A3"/>
<path d="M757.383 702.204L740.51 691.337C738.044 687.696 736.175 683.547 735.091 679.023C730.358 659.343 726.454 639.425 722.658 620.171C714.116 576.768 706.063 535.776 689.626 498.217C667.296 447.215 631.394 398.749 599.223 358.059C592.21 349.195 589.835 338.148 591.751 327.853C624.047 354.104 747.672 469.339 757.383 702.204Z" fill="#F21652"/>
<path d="M727.685 480.053C726.692 480.053 725.88 479.254 725.867 478.257C725.685 464.654 744.868 463.328 745.684 463.278C746.697 463.218 747.548 463.98 747.611 464.982C747.673 465.985 746.911 466.849 745.908 466.912C745.743 466.921 729.371 468.068 729.505 478.209C729.519 479.214 728.715 480.04 727.711 480.053H727.685Z" fill="black"/>
<path d="M777.946 784.568C769.65 790.335 756.204 790.863 741.74 788.495C719.192 784.807 694.162 774.094 682.147 765.242C680.572 764.091 679.043 762.835 677.579 761.506C674.331 758.567 671.35 755.215 668.74 751.463L570.567 589.712L570.008 588.863C569.931 588.747 568.944 587.224 567.08 584.554C564.528 580.884 560.327 575.03 554.66 567.647C548.264 559.312 540.014 549.044 530.148 537.819C500.279 503.847 455.63 461.056 403.127 436.235C387.347 428.783 376.427 415.214 371.836 399.695C367.875 386.32 368.631 371.482 375.064 357.878C388.951 328.494 424.038 315.946 453.414 329.824C576.235 387.876 659.458 510.68 668.22 523.994L792.6 702.636C811.168 729.311 804.612 765.992 777.946 784.568Z" fill="#FF34A3"/>
<path d="M752.481 658.73C751.667 658.73 750.926 658.182 750.718 657.358C743.423 628.623 683.349 548.594 682.743 547.79C682.138 546.986 682.299 545.845 683.103 545.241C683.905 544.637 685.047 544.797 685.651 545.601C688.143 548.911 746.774 627.025 754.246 656.462C754.493 657.435 753.903 658.426 752.93 658.674C752.779 658.711 752.627 658.73 752.481 658.73Z" fill="black"/>
<path d="M596.373 502.1C596.245 502.1 596.117 502.086 595.988 502.058C595.006 501.846 594.381 500.878 594.592 499.896C597.888 484.589 616.002 477.53 616.772 477.238C617.713 476.88 618.76 477.352 619.118 478.29C619.476 479.229 619.006 480.281 618.068 480.64C617.898 480.705 601.026 487.301 598.15 500.662C597.966 501.516 597.212 502.1 596.373 502.1Z" fill="black"/>
<path d="M741.74 788.495C719.192 784.806 694.161 774.093 682.148 765.242C680.572 764.09 679.044 762.835 677.579 761.506C674.331 758.567 671.349 755.215 668.74 751.463L570.567 589.713L570.008 588.862C569.932 588.746 568.944 587.225 567.08 584.554C612.527 626.025 701.108 712.219 741.74 788.495Z" fill="#F21652"/>
<path d="M530.149 537.819C500.28 503.847 455.629 461.056 403.126 436.235C387.346 428.783 376.428 415.214 371.837 399.695C407.013 417.655 512.362 475.898 530.149 537.819Z" fill="#F21652"/>
<path d="M403.127 436.235C381.16 424.458 343.772 410.827 316.796 401.615C298.019 395.205 284.272 390.946 284.272 390.946L325.474 291.303C334.846 291.771 348.364 294.695 363.504 298.843C411.028 311.917 474.4 337.235 474.4 337.235C459.79 337.266 403.127 436.235 403.127 436.235Z" fill="#009CE7"/>
<path d="M403.127 436.235C383.097 425.491 350.244 413.217 324.155 404.158C321.633 403.271 319.175 402.425 316.796 401.615C327.56 357.524 348.417 321.071 363.504 298.843C366.765 299.735 370.099 300.692 373.469 301.699C419.424 315.263 474.4 337.235 474.4 337.235C459.789 337.266 403.127 436.235 403.127 436.235Z" fill="#EEFAF7"/>
<path d="M403.122 441.697C402.239 441.697 401.343 441.481 400.512 441.029C397.866 439.585 396.89 436.267 398.334 433.621C398.459 433.391 411.019 410.411 426.064 386.769C457.299 337.685 468.758 333.487 472.523 332.107C475.356 331.07 478.49 332.525 479.528 335.357C480.564 338.189 479.11 341.325 476.278 342.362C461.968 347.605 426.755 404.327 407.92 438.85C406.928 440.667 405.055 441.697 403.122 441.697Z" fill="#FFF47A"/>
<path d="M324.155 404.158C321.633 403.271 319.176 402.424 316.796 401.615C327.561 357.524 348.417 321.072 363.505 298.843C366.765 299.736 370.099 300.692 373.469 301.699C363.569 316.512 341.193 353.307 324.155 404.158Z" fill="#FFF47A"/>
<path d="M367.931 305.579C367.705 305.38 367.613 305.056 367.723 304.757C367.864 304.367 368.296 304.165 368.687 304.308L463.629 338.919C464.02 339.061 464.221 339.493 464.079 339.884C463.936 340.275 463.505 340.475 463.115 340.333L368.172 305.721C368.08 305.689 367.999 305.639 367.931 305.579Z" fill="#FFF47A"/>
<path d="M361.899 312.393C361.675 312.195 361.581 311.872 361.689 311.573C361.831 311.183 362.261 310.981 362.652 311.123L457.143 345.331C457.532 345.475 457.735 345.904 457.593 346.295C457.452 346.685 457.02 346.888 456.629 346.747L362.141 312.537C362.048 312.504 361.968 312.455 361.899 312.393Z" fill="#FFF47A"/>
<path d="M359.63 319.838C359.404 319.638 359.312 319.313 359.424 319.013C359.568 318.623 360 318.425 360.39 318.57L453.906 353.267C454.296 353.413 454.494 353.843 454.35 354.234C454.206 354.623 453.772 354.822 453.382 354.677L359.868 319.979C359.777 319.946 359.698 319.898 359.63 319.838Z" fill="#FFF47A"/>
<path d="M355.248 327.841C355.02 327.64 354.93 327.312 355.043 327.012C355.19 326.623 355.624 326.427 356.012 326.573L448.69 361.609C449.078 361.757 449.275 362.191 449.127 362.58C448.98 362.968 448.547 363.164 448.158 363.017L355.48 327.981C355.392 327.948 355.315 327.9 355.248 327.841Z" fill="#FFF47A"/>
<path d="M343.244 337.742C343.018 337.543 342.926 337.218 343.037 336.918C343.18 336.528 343.612 336.328 344.002 336.472L440.14 371.87C440.53 372.014 440.729 372.447 440.586 372.836C440.442 373.226 440.01 373.426 439.62 373.282L343.482 337.884C343.392 337.851 343.312 337.802 343.244 337.742Z" fill="#FFF47A"/>
<path d="M343.007 352.655C342.792 352.465 342.698 352.159 342.788 351.869C342.912 351.471 343.334 351.25 343.73 351.374L436.024 380.129C436.42 380.254 436.642 380.675 436.519 381.071C436.395 381.467 435.974 381.689 435.576 381.566L343.282 352.81C343.178 352.777 343.086 352.723 343.007 352.655Z" fill="#FFF47A"/>
<path d="M334.559 359.761C334.336 359.565 334.243 359.246 334.347 358.949C334.483 358.557 334.912 358.35 335.306 358.486L428.984 391.169C429.378 391.303 429.584 391.734 429.447 392.127C429.31 392.519 428.88 392.726 428.488 392.59L334.808 359.907C334.714 359.874 334.63 359.823 334.559 359.761Z" fill="#FFF47A"/>
<path d="M338.075 370.434C337.838 370.224 337.751 369.882 337.88 369.575C338.044 369.194 338.486 369.015 338.868 369.179L423.587 405.272C423.968 405.435 424.147 405.876 423.984 406.259C423.822 406.642 423.38 406.819 422.996 406.656L338.278 370.563C338.202 370.53 338.134 370.487 338.075 370.434Z" fill="#FFF47A"/>
<path d="M329.928 377.807C329.691 377.596 329.604 377.251 329.737 376.944C329.903 376.563 330.345 376.388 330.728 376.555L417.264 414.256C417.643 414.421 417.819 414.865 417.653 415.247C417.487 415.627 417.044 415.801 416.663 415.636L330.125 377.933C330.053 377.901 329.985 377.859 329.928 377.807Z" fill="#FFF47A"/>
<path d="M327.386 383.119C327.148 382.909 327.062 382.562 327.196 382.254C327.362 381.874 327.806 381.701 328.188 381.867L410.319 417.831C410.698 417.998 410.874 418.442 410.706 418.823C410.539 419.203 410.096 419.377 409.715 419.21L327.583 383.245C327.51 383.213 327.444 383.17 327.386 383.119Z" fill="#FFF47A"/>
<path d="M326.196 391.787C325.964 391.582 325.875 391.247 325.997 390.943C326.152 390.558 326.591 390.371 326.976 390.526L408.631 423.369C409.017 423.522 409.204 423.962 409.049 424.347C408.893 424.733 408.455 424.919 408.069 424.765L326.415 391.922C326.333 391.889 326.259 391.843 326.196 391.787Z" fill="#FFF47A"/>
<path d="M323.561 400.257C323.333 400.055 323.242 399.725 323.358 399.424C323.506 399.036 323.942 398.843 324.33 398.992L404.133 429.655C404.521 429.804 404.714 430.239 404.566 430.627C404.417 431.015 403.981 431.208 403.593 431.059L323.79 400.396C323.703 400.363 323.627 400.315 323.561 400.257Z" fill="#FFF47A"/>
<path d="M164.873 368.262L172.744 193.688C172.744 193.688 174.816 142.784 200.602 123.558C200.602 123.558 244.485 107.032 256.125 163.684C257.414 169.992 258.334 177.22 258.724 185.484C258.724 185.484 267.238 226.4 283.865 241.572L330.116 283.951C330.116 283.951 325.929 291.274 320.954 303.778C319.35 307.792 317.673 312.344 316.016 317.355C308.921 338.807 302.324 368.806 305.036 401.766L233.358 384.64L164.873 368.262Z" fill="#FF0000"/>
<path d="M182.691 369.531C182.652 369.531 182.612 369.531 182.572 369.528C181.234 369.464 180.2 368.327 180.266 366.988L187.403 218.156C187.94 155.251 215.274 125.96 216.436 124.744C217.362 123.775 218.898 123.74 219.867 124.668C220.835 125.593 220.87 127.127 219.946 128.096C219.674 128.381 192.774 157.363 192.254 218.292L185.112 367.22C185.051 368.52 183.978 369.531 182.691 369.531Z" fill="#003493"/>
<path d="M246.156 212.758C237.874 187.149 248.436 171.262 256.127 163.685C257.415 169.993 258.335 177.221 258.724 185.485C258.724 185.485 267.24 226.401 283.866 241.573L330.116 283.951C330.116 283.951 325.93 291.274 320.955 303.778C271.436 270.323 246.156 212.758 246.156 212.758Z" fill="#003493"/>
<path d="M330.115 283.951L357.296 295.398C357.296 295.398 356.083 329.139 315.652 315.93C315.652 315.93 330.718 284.471 330.115 283.951Z" fill="#FF0000"/>
<path d="M233.358 384.641C253.83 368.81 258.105 344.049 258.105 344.049C278.256 297.918 315.642 315.931 315.642 315.931C315.642 315.931 315.768 316.418 316.016 317.355C308.921 338.807 302.324 368.806 305.036 401.766L233.358 384.641Z" fill="#003493"/>
<path d="M317.572 277.941L317.423 277.682C317.373 277.768 317.325 277.852 317.276 277.936C317.375 277.938 317.475 277.94 317.572 277.941ZM335.692 259.544C339.877 254.609 344.631 246.724 342.424 238.006C341.551 234.568 339.429 230.56 337.209 229.906C336.845 229.8 335.741 229.473 333.789 231.289C329.085 235.669 327.56 244.02 326.216 251.386C325.659 254.441 325.133 257.325 324.411 259.912C324.376 260.034 322.473 266.593 319.895 272.605C325.512 269.066 329.929 265.592 333.593 261.848C334.249 261.177 334.963 260.405 335.692 259.544ZM329.039 229.298C329.496 228.757 329.984 228.245 330.504 227.76C333.78 224.712 336.7 224.729 338.573 225.281C343.041 226.598 345.956 232.322 347.097 236.824C349.447 246.102 345.871 256.178 337.04 265.218C332.681 269.672 327.384 273.737 320.493 277.901C351.991 276.532 371.309 245.464 371.516 245.125L375.636 247.63C374.664 249.228 351.416 286.698 312.372 282.441H312.368L312.891 277.649C312.209 277.574 311.723 277.866 311.605 277.974C313.453 276.293 318.827 261.976 319.767 258.613C320.429 256.241 320.936 253.462 321.473 250.521C322.821 243.134 324.332 234.849 329.039 229.298Z" fill="black"/>
<path d="M313.983 260.834C314.245 255.81 313.982 250.883 313.197 246.17C310.919 232.488 302.637 216.884 289.265 212.87L289.006 212.79C288.782 212.722 288.289 212.57 287.837 212.47C289.321 218.111 293.046 224.106 296.653 229.907C298.234 232.454 299.731 234.859 301.011 237.194L313.983 260.834ZM283.83 208.891C285.054 207.447 287.265 207.208 290.425 208.182C306.011 212.863 315.431 230.222 317.954 245.379C318.853 250.784 319.115 256.443 318.733 262.198C318.703 262.642 318.547 263.467 318.35 264.423C318.154 265.379 317.743 267.367 317.813 267.952C317.813 267.948 317.789 267.77 317.657 267.527L313.43 269.847L296.785 239.514C295.566 237.292 294.105 234.942 292.558 232.452C288.706 226.256 284.723 219.85 283.099 213.412C282.873 212.514 282.673 211.326 283.13 210.11C283.309 209.638 283.542 209.231 283.83 208.891Z" fill="black"/>
<path d="M123.22 197.277C110.399 186.405 108.818 167.198 119.69 154.377C130.562 141.556 149.768 139.974 162.59 150.846C175.412 161.718 176.991 180.925 166.12 193.748C155.248 206.568 136.042 208.149 123.22 197.277Z" fill="black"/>
<path d="M130.867 188.258C123.027 181.61 122.061 169.865 128.709 162.025C135.357 154.183 147.102 153.217 154.942 159.866C162.783 166.513 163.75 178.258 157.101 186.099C150.453 193.939 138.707 194.906 130.867 188.258Z" fill="#FF0000"/>
<path d="M136.002 182.203C131.504 178.391 130.95 171.654 134.763 167.158C138.576 162.662 145.312 162.107 149.808 165.921C154.306 169.733 154.859 176.469 151.047 180.965C147.234 185.462 140.498 186.015 136.002 182.203Z" fill="white"/>
<path d="M111.138 364.833C96.6656 352.562 94.8816 330.882 107.152 316.412C119.423 301.94 141.103 300.156 155.575 312.426C170.047 324.697 171.831 346.377 159.559 360.848C147.288 375.32 125.61 377.104 111.138 364.833Z" fill="black"/>
<path d="M119.769 354.653C110.92 347.149 109.828 333.892 117.332 325.042C124.836 316.193 138.093 315.101 146.942 322.605C155.793 330.109 156.884 343.366 149.38 352.216C141.876 361.066 128.618 362.157 119.769 354.653Z" fill="#FF0000"/>
<path d="M125.564 347.819C120.488 343.515 119.862 335.912 124.166 330.838C128.469 325.762 136.073 325.136 141.148 329.439C146.224 333.743 146.849 341.347 142.545 346.422C138.242 351.496 130.638 352.123 125.564 347.819Z" fill="white"/>
<path d="M242.506 343.852C233.069 354.516 216.774 355.509 206.11 346.072C195.447 336.633 194.454 320.338 203.891 309.674C213.329 299.012 229.625 298.018 240.287 307.456C250.951 316.893 251.945 333.188 242.506 343.852Z" fill="#003493"/>
<path d="M318.652 308.758C318.161 308.758 317.667 308.61 317.237 308.302C264.331 270.267 236.172 233.678 233.54 199.551C231.507 173.171 245.943 158.645 246.559 158.039C247.513 157.099 249.049 157.113 249.991 158.067C250.928 159.022 250.917 160.555 249.964 161.495C249.789 161.673 236.473 175.242 238.392 199.331C240.175 221.741 255.792 258.153 320.069 304.361C321.159 305.143 321.407 306.659 320.624 307.747C320.151 308.407 319.405 308.758 318.652 308.758Z" fill="#003493"/>
<path d="M540.154 552.802C539.581 552.802 539.018 552.534 538.665 552.03C520.841 526.731 489.859 502.383 489.55 502.14C488.758 501.522 488.618 500.378 489.237 499.586C489.854 498.794 490.999 498.655 491.791 499.272C492.106 499.519 523.502 524.188 541.639 549.935C542.218 550.756 542.021 551.891 541.199 552.47C540.882 552.695 540.515 552.802 540.154 552.802Z" fill="black"/>
<path d="M913.68 648.901C913.68 648.901 977.196 661.765 997.132 687.621C997.132 687.621 1057.05 739.414 954.981 769.913C954.981 769.913 874.928 808.807 806.409 759.841L821.049 682.589L895.689 637.086L913.68 648.901Z" fill="#FF34A3"/>
<path d="M1289.67 879.76C1282.92 887.393 1273.46 891.192 1264.02 891.004C1256.37 890.859 1248.75 888.1 1242.57 882.632C1191.41 837.349 1099.49 799.957 1091.88 796.915L962.704 751.351C958.524 749.871 954.82 747.647 951.695 744.88C943.608 737.723 939.367 726.936 940.66 716.009C940.943 713.603 941.5 711.179 942.343 708.781C948.469 691.405 967.528 682.284 984.904 688.411L1115.28 734.399L1115.83 734.616C1120.26 736.365 1224.95 777.92 1286.8 832.66C1300.6 844.875 1301.89 865.959 1289.67 879.76Z" fill="#FF34A3"/>
<path d="M1267.69 888.123L1264.02 891.003C1256.37 890.859 1248.75 888.099 1242.57 882.633C1191.41 837.35 1099.49 799.958 1091.88 796.915L962.705 751.351C958.524 749.871 954.821 747.647 951.695 744.879C943.608 737.722 939.367 726.935 940.66 716.01C996.857 744.474 1055 768.855 1112.98 793.42C1164.52 815.248 1219.66 842.065 1260.67 881.055C1263.07 883.342 1265.43 885.691 1267.69 888.123Z" fill="#F21652"/>
<path d="M1339.87 880.184C1338.8 880.932 1370.4 920.431 1404.01 912.718C1404.01 912.718 1415.46 909.48 1397.07 896.906C1397.07 896.906 1347.56 874.823 1339.87 880.184Z" fill="#F21652"/>
<path d="M1356.42 882.427C1356.97 882.383 1360 885.968 1360.48 886.383C1371.19 895.5 1385.43 899.76 1399.38 899.26C1406.37 899.011 1413.33 897.584 1419.82 894.975C1423.77 893.387 1437.51 887.107 1430.78 881.175C1427 877.845 1417.28 878.204 1412.76 877.843C1412.76 877.843 1356.47 882.423 1356.42 882.427Z" fill="#FF1A95"/>
<path d="M1346.28 963.804C1345.37 964.023 1344.36 964.034 1343.25 963.731C1338.58 962.468 1334.28 955.598 1330.63 952.398C1318.54 941.815 1302.73 929.635 1288.01 923.546C1272.4 917.087 1264.5 903.351 1260.85 894.438C1258.85 889.539 1258.14 886.102 1258.14 886.102C1250.57 856.623 1285.32 833.764 1285.32 833.764C1286.17 833.206 1300.32 840.008 1301.96 840.58C1309.22 843.103 1316.79 844.988 1323.96 847.526C1338.75 852.76 1353.18 858.663 1368.76 861.478C1385.73 864.544 1402.22 864.036 1419.29 862.6C1420.71 862.479 1422.35 862.456 1423.26 863.536C1425.71 866.446 1423.53 869.776 1421.08 871.868C1418.57 874.016 1415.88 875.899 1413.04 877.534L1413.03 877.543C1397.99 886.266 1379 888.29 1362.08 887.827C1351.49 887.535 1340.06 886.392 1329.97 882.916C1317.48 878.64 1314.17 880.08 1313.36 880.766C1313.19 880.915 1313.13 881.03 1313.13 881.03C1312.22 895.19 1320.25 903.855 1320.25 903.855L1339.89 924.594C1352.35 938.49 1351.79 955.8 1351.79 955.8C1351.39 959.204 1349.53 962.987 1346.28 963.804Z" fill="#FF34A3"/>
<path d="M1422.69 869.209C1422.69 869.209 1418.23 873.1 1413.04 877.533L1413.03 877.542C1397.99 886.265 1379 888.29 1362.08 887.826C1351.5 887.534 1340.06 886.393 1329.96 882.916C1317.48 878.64 1314.16 880.08 1313.36 880.765C1313.17 877.648 1312.98 874.514 1312.79 871.397C1312.79 871.397 1340.43 877.353 1342.7 877.858C1368.65 883.601 1399.36 883.637 1422.69 869.209Z" fill="#F21652"/>
<path d="M1346.28 963.804C1345.37 964.023 1344.36 964.034 1343.25 963.731C1338.58 962.468 1334.28 955.598 1330.63 952.398C1318.54 941.815 1302.73 929.635 1288.01 923.546C1272.4 917.087 1264.5 903.351 1260.85 894.438C1258.89 882.652 1261.09 875.254 1261.22 874.85C1261.35 915.199 1308.52 922.448 1331.19 945.53C1335.61 950.023 1339.57 954.939 1343.66 959.735C1344.53 960.756 1345.42 961.794 1345.96 963.024C1346.08 963.275 1346.17 963.535 1346.28 963.804Z" fill="#F21652"/>
<path d="M1418.93 888.601C1418.28 888.601 1417.65 888.53 1417.03 888.39C1412.8 887.426 1410.93 883.514 1410.85 883.349C1410.57 882.74 1410.84 882.018 1411.44 881.736C1412.05 881.453 1412.77 881.713 1413.05 882.318C1413.07 882.36 1414.53 885.346 1417.59 886.029C1420.16 886.604 1423.19 885.472 1426.61 882.673C1427.13 882.249 1427.9 882.325 1428.32 882.842C1428.74 883.36 1428.67 884.126 1428.15 884.55C1424.86 887.244 1421.77 888.601 1418.93 888.601Z" fill="black"/>
<path d="M1339.7 959.264C1339.63 959.264 1339.56 959.257 1339.48 959.244C1338.83 959.125 1338.39 958.496 1338.51 957.836C1339.98 949.658 1339.14 944.304 1336.02 941.924C1331.42 938.416 1323.04 942.353 1322.96 942.394C1322.35 942.681 1321.63 942.428 1321.34 941.824C1321.05 941.22 1321.3 940.496 1321.91 940.206C1322.3 940.014 1331.7 935.586 1337.48 939.989C1341.39 942.965 1342.54 949.114 1340.89 958.265C1340.79 958.85 1340.28 959.264 1339.7 959.264Z" fill="black"/>
<path d="M1402.54 873.654C1401.82 873.654 1401.12 873.573 1400.43 873.41C1395.05 872.146 1392.76 866.446 1392.67 866.205C1392.42 865.581 1392.73 864.877 1393.35 864.632C1393.98 864.388 1394.68 864.693 1394.93 865.316C1394.95 865.364 1396.87 870.09 1401 871.052C1404.11 871.778 1407.78 870.248 1411.92 866.512C1412.41 866.062 1413.18 866.1 1413.63 866.596C1414.08 867.093 1414.04 867.86 1413.55 868.31C1409.62 871.864 1405.92 873.654 1402.54 873.654Z" fill="black"/>
<path d="M1283.61 922.602C1283.43 922.602 1283.24 922.56 1283.06 922.468C1256.49 908.818 1257.91 879.693 1257.93 879.401C1257.97 878.732 1258.53 878.226 1259.21 878.262C1259.88 878.301 1260.39 878.876 1260.35 879.545C1260.34 879.821 1259.03 907.397 1284.17 920.309C1284.77 920.616 1285 921.348 1284.7 921.944C1284.48 922.361 1284.06 922.602 1283.61 922.602Z" fill="black"/>
<path d="M1108.91 803.89C1108.45 803.89 1108.02 803.637 1107.81 803.201C1100.33 787.622 1107.44 779.311 1107.75 778.966C1108.19 778.465 1108.96 778.418 1109.46 778.862C1109.96 779.305 1110.01 780.069 1109.57 780.571C1109.29 780.893 1103.27 788.13 1110 802.15C1110.29 802.754 1110.04 803.479 1109.43 803.77C1109.26 803.851 1109.08 803.89 1108.91 803.89Z" fill="black"/>
<path d="M958.795 662.677C991.907 618.161 1008.69 562.462 1007.45 500.527C1006.77 465.971 1000.72 430.582 989.479 395.321C989.329 394.883 989.212 394.503 989.116 394.191C986.517 385.961 984.449 376.158 976.431 371.361C970.952 368.085 963.185 367.871 957.285 370.053C950.728 372.481 948.5 378.093 948.409 384.347C948.399 385.31 948.425 386.289 948.509 387.271C949.763 402.882 955.156 417.605 957.027 433.066C960.811 464.253 957.539 496.582 950.127 526.998C942.164 559.666 928.521 591.21 908.681 618.405C905.389 622.927 901.928 627.317 898.301 631.578C896.544 633.637 895.081 635.858 893.908 638.173C887.185 651.425 889.991 667.973 901.567 678.217L902.021 678.619C916.047 690.581 937.108 688.918 949.061 674.901C952.447 670.929 955.697 666.854 958.795 662.677Z" fill="#FF34A3"/>
<path d="M908.682 618.404C928.522 591.21 942.164 559.666 950.127 526.998C957.539 496.582 960.811 464.252 957.027 433.066C955.155 417.604 949.763 402.882 948.51 387.271C948.426 386.288 948.399 385.31 948.41 384.347C959.936 410.444 989.748 496.603 931.174 589.734C931.174 589.734 920.451 607.579 908.682 618.404Z" fill="#F21652"/>
<path d="M919.733 304.782C919.733 304.782 909.203 306.526 917.119 312.621L940.674 322.201L934.522 306.659L919.733 304.782Z" fill="#F21652"/>
<path d="M912.234 292.301L933.696 299.534L937.666 313.22C937.666 313.22 910.219 310.076 912.234 292.301Z" fill="#FF1A95"/>
<path d="M977.778 371.889C977.778 371.889 961.492 373.5 953.346 378.055C952.574 378.488 951.871 378.952 951.263 379.436C950.96 379.669 950.692 379.917 950.44 380.165C950.44 380.165 950.056 379.648 949.524 378.949L949.515 378.941C948.346 377.388 946.494 374.923 946.484 374.915C943.967 371.552 939.964 369.045 937.344 365.56C932.527 359.159 930.486 351.34 927.362 344.087C923.958 336.18 919.384 331.241 911.751 327.435C912.263 326.528 913.182 325.087 914.188 324.115C914.618 323.684 915.07 323.356 915.507 323.192C921.374 320.737 930.931 326.36 936.512 328.221C937.09 328.409 936.594 318.443 936.39 317.629C934.156 308.912 926.268 303.324 921.914 295.743C920.058 292.512 918.506 289.048 917.732 285.399C917.188 282.809 916.266 276.565 918.359 274.384C918.359 274.384 919.49 273.197 923.466 279.617C923.466 279.617 933.195 294.143 943.362 302.281C943.362 302.281 957.916 314.272 964.796 326.195C964.796 326.195 977.344 347.168 977.778 371.889Z" fill="#FF34A3"/>
<path d="M958.857 381.604C958.577 381.518 955.447 380.642 951.264 379.437C950.705 379.281 950.127 379.11 949.524 378.949L949.515 378.941C948.345 377.388 946.495 374.922 946.485 374.914C943.967 371.552 939.964 369.046 937.344 365.561C932.528 359.16 930.487 351.341 927.363 344.088C923.957 336.181 919.385 331.242 911.752 327.436C912.264 326.528 913.181 325.088 914.188 324.114C919.308 327.025 928.976 334.044 934.251 347.656C934.251 347.656 941.815 368.382 953.345 378.054C955.095 379.521 956.941 380.749 958.857 381.604Z" fill="#F21652"/>
<path d="M927.237 336.606C926.614 336.606 926.086 336.131 926.029 335.5C925.833 333.302 925.049 331.636 923.698 330.55C921.286 328.61 917.85 329.023 917.817 329.027C917.158 329.118 916.543 328.643 916.459 327.979C916.374 327.314 916.843 326.706 917.509 326.622C917.694 326.599 922.013 326.08 925.218 328.659C927.103 330.175 928.19 332.404 928.446 335.284C928.505 335.952 928.013 336.542 927.345 336.602C927.309 336.604 927.271 336.606 927.237 336.606Z" fill="black"/>
<path d="M924.475 288.238C921.934 288.134 920.218 287.306 919.292 285.775C917.684 283.115 919.283 279.558 919.471 279.16C919.758 278.554 920.483 278.298 921.087 278.582C921.692 278.868 921.951 279.591 921.667 280.196C921.312 280.955 920.571 283.208 921.372 284.524C921.85 285.312 922.902 285.746 924.499 285.814L925.58 285.787C926.25 285.738 926.806 286.302 926.822 286.972C926.836 287.642 926.306 288.198 925.635 288.211L924.475 288.238Z" fill="black"/>
<path d="M955.003 382.632C954.871 382.632 954.737 382.609 954.603 382.562C947.549 380.098 938.779 369.194 938.41 368.732C937.99 368.208 938.077 367.444 938.599 367.026C939.122 366.609 939.886 366.693 940.306 367.216C940.391 367.325 949.007 378.037 955.405 380.272C956.035 380.493 956.37 381.185 956.149 381.818C955.975 382.318 955.505 382.632 955.003 382.632Z" fill="black"/>
<path d="M959.553 471.318C959.154 471.318 958.764 471.122 958.53 470.762C958.169 470.198 958.332 469.448 958.894 469.085C967.736 463.393 974.222 465.177 974.492 465.256C975.137 465.442 975.506 466.116 975.32 466.758C975.134 467.401 974.466 467.769 973.822 467.588C973.716 467.56 968.02 466.096 960.209 471.125C960.006 471.256 959.778 471.318 959.553 471.318Z" fill="black"/>
<path d="M933.435 313.176C933.326 313.176 933.214 313.16 933.103 313.129C910.015 306.581 910.065 292.397 910.078 291.796C910.091 291.125 910.658 290.579 911.318 290.611C911.986 290.625 912.517 291.177 912.505 291.845C912.498 292.399 912.618 304.796 933.766 310.795C934.41 310.977 934.785 311.648 934.602 312.293C934.451 312.827 933.963 313.176 933.435 313.176Z" fill="black"/>
<path d="M936.157 329.628C936.005 329.628 935.85 329.598 935.699 329.538C935.078 329.285 934.781 328.577 935.033 327.957C940.626 314.221 921.238 296.846 921.041 296.672C920.539 296.228 920.493 295.461 920.937 294.96C921.382 294.458 922.149 294.41 922.649 294.854C923.505 295.61 943.514 313.56 937.281 328.872C937.089 329.342 936.634 329.628 936.157 329.628Z" fill="black"/>
<path d="M948.016 772.085C948.016 772.085 892.617 812.708 826.509 776.348C826.509 776.348 814.006 787.416 806.021 773.867C806.021 773.867 805.321 764.807 805.418 752.139C805.598 728.885 808.453 693.496 823.212 679.985C823.212 679.985 822.616 665.409 838.141 671.048C838.46 670.924 839.573 670.307 841.309 669.315C842.458 662.78 845.936 656.947 849.173 650.965C850.045 649.356 850.91 647.739 852.053 646.32C856.409 640.923 865.378 637.892 872.228 638.024C872.316 638.036 884.182 638.267 893.4 638.452C894.85 637.581 895.689 637.092 895.689 637.092C895.689 637.092 898.425 635.284 902.682 633.091C910.857 628.853 924.656 623.129 935.386 625.871C935.386 625.871 938.874 626.801 925.024 634.521C923.254 635.515 908.26 665.053 955.548 679.361C955.548 679.361 969.333 684.547 987.53 682.293C987.53 682.293 994.79 688.719 994.8 688.725C993.717 687.771 988.106 689.075 986.896 689.233C979.452 690.212 972.154 692.341 965.193 695.157C944.792 703.415 918.68 717.977 915.92 742.48C914.601 754.147 921.064 761.876 929.938 766.587C935.456 769.525 941.916 771.288 948.016 772.085Z" fill="#FFF9EE"/>
<path d="M948.016 772.085C948.016 772.085 892.617 812.708 826.509 776.348C826.509 776.348 814.006 787.416 806.021 773.867C806.021 773.867 805.321 764.807 805.418 752.139C810.044 750.74 817.622 750.983 819.934 751.28C835.457 753.223 843.657 768.451 858.498 772.901C871.246 776.715 884.929 777.239 898.058 775.493C904.777 774.603 911.412 773.148 917.926 771.299C919.286 770.915 924.8 768.584 929.938 766.587C935.456 769.525 941.916 771.288 948.016 772.085Z" fill="#E58B84"/>
<path d="M948.024 774.512C947.966 774.512 947.906 774.511 947.846 774.506C913.704 772.036 913.882 747.986 913.887 747.744C914.792 726.303 928.224 708.887 952.735 697.336C970.942 688.756 988.595 686.435 989.338 686.342C990.666 686.164 991.882 687.112 992.051 688.44C992.22 689.77 991.28 690.986 989.951 691.155C989.259 691.244 920.736 700.562 918.738 747.904C918.728 748.651 918.815 767.539 948.198 769.666C949.534 769.762 950.539 770.924 950.442 772.262C950.35 773.538 949.284 774.512 948.024 774.512Z" fill="#009DE6"/>
<path d="M931.128 631.287C931.128 631.287 913.663 636.897 924.994 659.077L939.827 647.09C939.827 647.09 960.35 631.225 975.691 643.183C975.691 643.183 955.44 621.209 931.128 631.287Z" fill="#F21652"/>
<path d="M986.119 664.575C987.162 663.9 988.209 663.182 989.261 662.411L992.13 654.794L989.693 653.876L948.969 638.535L933.181 652.059L924.994 659.076C924.994 659.076 937.837 671.408 956.409 672.731L985.341 679.27C989.063 673.62 986.531 668.748 986.119 664.575Z" fill="#FF34A3"/>
<path d="M990.283 658.157C968.551 667.296 941.679 656.129 933.181 652.06L948.969 638.534L989.694 653.876L990.283 658.157Z" fill="#F21652"/>
<path d="M1110.46 692.108C1096.36 693.952 1081.11 691.665 1070.86 681.034C1068.27 678.352 1065.72 674.878 1061.76 674.889C1057.34 674.898 1052.29 677.624 1048.69 679.949C1040.96 684.957 1035.03 692.276 1027.23 697.204C1021 701.137 1013.64 703.67 1006.29 703.018C985.876 701.209 981.314 676.796 993.48 663.664C994.662 662.353 996.022 661.177 997.548 660.129L987.674 652.536L986.298 651.477L951.058 624.362L950.441 623.893L946.405 620.784C946.405 620.784 945.548 620.302 944.421 619.264C941.676 616.729 937.35 610.878 940.073 600.62C940.414 599.328 940.872 597.964 941.449 596.533C941.449 596.533 926.493 567.289 958.562 559.045C958.546 559.028 959.253 553.844 959.342 553.528C960.561 548.845 963.045 544.545 966.216 540.914C970.321 536.238 975.697 532.17 981.642 529.41C989.246 525.909 997.808 524.564 1005.84 526.882C1011.71 528.577 1015.81 532.95 1020.49 536.565C1025.58 540.488 1031.15 543.63 1037.51 544.906C1043.72 546.166 1050 545.241 1056.26 544.924C1073.63 544.09 1097.09 547.768 1110.25 560.14C1113.15 562.87 1115.46 566.162 1116.81 569.941C1119.67 577.95 1115.89 586.992 1116.24 595.248C1116.46 600.218 1117.27 605.557 1119.38 610.172C1120.84 613.378 1122.94 616.233 1125.89 618.39C1129.2 620.802 1133.1 622.188 1136.51 624.37C1140.18 626.71 1143.65 629.352 1146.79 632.382C1151.14 636.585 1155.34 642.028 1154.82 648.345C1154.34 654.328 1151.72 660.229 1148.55 665.241C1139.88 679.024 1127.01 689.964 1110.46 692.108Z" fill="#080017"/>
<path d="M987.534 572.475C987.534 572.475 968.409 580.072 962.489 595.268C961.858 596.884 958.82 598.623 957.477 599.525C954.818 601.313 952.11 601.391 949.049 602.009C945.84 602.66 944.817 605.385 946.333 608.216C946.948 609.364 948.948 610.852 948.922 611.925C948.91 612.476 947.821 613.72 947.522 614.205C946.288 616.224 945.053 618.241 943.818 620.26C941.99 623.247 937.358 632.137 935.53 635.124C935.53 635.124 933.382 638.635 940.246 644.765C940.246 644.765 964.298 664.024 984.314 657.068L1004.83 629.379L987.534 572.475Z" fill="#FF34A3"/>
<path d="M980.624 613.677C975.354 613.677 971.386 612.282 968.828 609.526C965.551 605.995 965.892 601.571 965.91 601.385C965.967 600.717 966.546 600.206 967.222 600.281C967.888 600.338 968.382 600.923 968.327 601.59C968.323 601.642 968.086 605.181 970.631 607.901C972.762 610.177 976.242 611.283 980.951 611.249H980.966C981.628 611.249 982.171 611.782 982.179 612.447C982.187 613.117 981.65 613.667 980.98 613.675C980.862 613.677 980.743 613.677 980.624 613.677Z" fill="black"/>
<path d="M980.328 568.177C980.16 570.094 980.243 572.045 980.53 573.933C982.48 586.753 993.874 597.514 1006.78 598.733C1005.37 602.357 1004.11 606.115 1004.02 610.003C1003.93 613.891 1001.72 617.497 1004.63 620.073C998.47 628.361 991.694 639.383 985.535 647.671C989.711 645.683 998.194 641.754 1002.8 641.405C1007.42 641.055 1012.28 642.151 1015.79 645.165C1016.52 645.795 1017.23 646.522 1018.15 646.811C1018.81 647.018 1019.52 646.978 1020.21 646.921C1033.47 645.813 1046.63 638.91 1054.07 627.69C1063.66 613.21 1058.6 597.443 1049.04 584.29C1039.9 571.71 1026.84 562.063 1012.47 556.259C1007.78 554.367 1002.86 552.819 997.806 552.83C992.756 552.839 987.526 554.587 984.2 558.387C981.838 561.089 980.642 564.573 980.328 568.177Z" fill="#080017"/>
<path d="M984.931 655.454C984.089 658.849 989.675 662.13 991.987 663.138C997.525 665.549 1005.22 663.574 1010.62 659.187C1014.22 656.263 1018.48 650.743 1018.72 646.202C1018.89 643.01 1016.5 637.989 1013.18 637.735C1013.18 637.735 989.802 635.943 984.931 655.454Z" fill="#FF34A3"/>
<path d="M992.972 654.033C992.675 654.033 992.377 653.924 992.144 653.707C991.653 653.248 991.627 652.481 992.085 651.992C992.193 651.876 994.777 649.133 998.436 647.317C1003.51 644.799 1008.14 645.285 1011.83 648.727C1012.32 649.184 1012.34 649.951 1011.88 650.441C1011.43 650.932 1010.66 650.956 1010.17 650.5C1007.25 647.771 1003.67 647.433 999.515 649.492C996.245 651.115 993.883 653.623 993.857 653.648C993.619 653.904 993.295 654.033 992.972 654.033Z" fill="black"/>
<path d="M990.256 604.769C989.781 604.769 989.331 604.488 989.135 604.022C983.373 590.226 974.413 592.468 974.325 592.49C973.673 592.668 973.011 592.282 972.837 591.634C972.663 590.988 973.045 590.322 973.692 590.148C973.803 590.118 984.803 587.352 991.375 603.088C991.633 603.705 991.34 604.416 990.723 604.676C990.569 604.74 990.412 604.769 990.256 604.769Z" fill="black"/>
<path d="M1006.78 599.894C1006.72 599.894 1006.65 599.889 1006.59 599.878C996.891 598.315 989.578 594.037 984.85 587.158C975.806 573.999 979.407 556.169 979.566 555.417C979.702 554.761 980.345 554.337 981.001 554.478C981.657 554.615 982.077 555.257 981.941 555.914C981.905 556.089 978.399 573.503 986.858 585.795C991.197 592.098 997.965 596.031 1006.98 597.482C1007.64 597.589 1008.09 598.211 1007.98 598.873C1007.88 599.47 1007.37 599.894 1006.78 599.894Z" fill="#F3174E"/>
<path d="M985.534 648.883C985.29 648.883 985.045 648.81 984.833 648.659C984.285 648.27 984.158 647.513 984.546 646.967L1001.48 623.179C999.219 613.687 993.723 596.63 993.666 596.455C993.459 595.817 993.81 595.133 994.449 594.927C995.086 594.723 995.77 595.073 995.975 595.709C996.033 595.889 1001.77 613.69 1003.96 623.162L1004.09 623.693L986.523 648.374C986.286 648.706 985.913 648.883 985.534 648.883Z" fill="#F3174E"/>
<path d="M1101.15 681.184C1091.51 681.184 1082.14 677.154 1073.23 669.156C1072.73 668.708 1072.69 667.94 1073.13 667.442C1073.58 666.943 1074.35 666.902 1074.85 667.348C1084.73 676.215 1095.14 679.939 1105.79 678.426C1128.81 675.144 1145.71 648.366 1145.88 648.095C1146.23 647.526 1146.99 647.351 1147.55 647.706C1148.12 648.059 1148.3 648.807 1147.94 649.376C1147.23 650.518 1130.29 677.379 1106.14 680.827C1104.47 681.066 1102.81 681.184 1101.15 681.184Z" fill="#F3174E"/>
<path d="M1021.81 643.412C1021.43 643.412 1021.06 643.238 1020.82 642.907C1015.74 635.832 1006.75 639.143 1006.37 639.287C1005.75 639.524 1005.04 639.212 1004.8 638.586C1004.57 637.96 1004.88 637.262 1005.5 637.02C1005.61 636.978 1016.62 632.883 1022.79 641.492C1023.18 642.036 1023.06 642.794 1022.52 643.186C1022.3 643.338 1022.06 643.412 1021.81 643.412Z" fill="#F3174E"/>
<path d="M935.217 597.613C945.781 601.513 951.184 613.238 947.284 623.802C943.384 634.365 931.658 639.767 921.094 635.867C910.53 631.969 905.129 620.243 909.028 609.679C912.928 599.115 924.653 593.713 935.217 597.613Z" fill="#FFDE00"/>
<path d="M930.098 600.041C934.555 601.686 936.835 606.634 935.189 611.093C933.545 615.55 928.597 617.83 924.138 616.184C919.682 614.538 917.402 609.59 919.047 605.133C920.693 600.677 925.641 598.397 930.098 600.041Z" fill="#FFE57A"/>
<path d="M945.337 637.794C944.814 637.794 944.333 637.454 944.176 636.93C944.101 636.686 942.408 630.887 945.424 625.626C947.422 622.139 950.974 619.758 955.978 618.547C956.628 618.39 957.286 618.79 957.444 619.442C957.6 620.094 957.2 620.748 956.549 620.906C952.217 621.954 949.184 623.947 947.53 626.831C945.028 631.199 946.484 636.179 946.498 636.228C946.693 636.871 946.329 637.547 945.688 637.74C945.57 637.775 945.453 637.794 945.337 637.794Z" fill="black"/>
<path d="M1119.38 610.171C1118.7 610.514 1118.33 610.714 1118.33 610.714C1116.87 611.466 1111.01 602.637 1110.36 601.47C1108.51 598.161 1107.52 595.091 1107.19 591.345C1106.58 584.289 1107.81 576.102 1104.11 569.709C1100.84 564.071 1094.74 560.969 1088.76 559.021C1076.51 555.045 1061.67 554.482 1049.12 557.39C1030.06 561.809 1017 544.133 1017 544.133C1004.01 524.743 981.195 529.874 981.195 529.874C981.195 529.874 981.347 529.717 981.642 529.41C989.246 525.909 997.807 524.563 1005.84 526.882C1011.71 528.577 1015.81 532.95 1020.49 536.565C1025.58 540.487 1031.15 543.63 1037.51 544.906C1043.72 546.166 1050 545.241 1056.26 544.923C1073.63 544.09 1097.09 547.767 1110.24 560.141C1113.15 562.87 1115.46 566.162 1116.81 569.941C1119.67 577.95 1115.89 586.991 1116.24 595.249C1116.46 600.218 1117.27 605.557 1119.38 610.171Z" fill="#F3174E"/>
<path d="M985.584 657.546C980.812 652.392 972.735 652.08 967.58 656.853C962.425 661.626 962.113 669.702 966.888 674.857C971.66 680.013 979.736 680.322 984.891 675.55C990.047 670.778 990.357 662.701 985.584 657.546ZM964.216 677.33C958.08 670.702 958.48 660.318 965.108 654.182C971.735 648.046 982.119 648.446 988.256 655.074C994.391 661.701 993.992 672.085 987.364 678.222C980.736 684.357 970.352 683.958 964.216 677.33Z" fill="white"/>
<path d="M1069.66 789.951C1069.5 789.951 1069.34 789.919 1069.19 789.854C1051.79 782.441 994.792 764.139 994.218 763.955C966.96 757.737 949.398 747.829 942.124 734.535C936.508 724.275 939.393 715.949 939.52 715.599C939.745 714.969 940.441 714.641 941.072 714.867C941.701 715.094 942.028 715.787 941.802 716.418C941.762 716.537 939.188 724.182 944.293 733.445C949.074 742.123 961.729 754.054 994.858 761.617C995.533 761.829 1052.64 780.165 1070.14 787.621C1070.75 787.883 1071.04 788.595 1070.78 789.213C1070.58 789.674 1070.13 789.95 1069.66 789.951Z" fill="black"/>
<path d="M878.176 750.911C877.95 750.911 877.718 750.847 877.514 750.714C864.906 742.467 857.604 732.331 855.814 720.588C852.726 700.352 866.968 682.776 867.576 682.039C868.002 681.523 868.764 681.447 869.283 681.874C869.8 682.299 869.875 683.063 869.45 683.582C869.308 683.755 855.283 701.086 858.214 720.239C859.902 731.264 866.842 740.834 878.842 748.682C879.403 749.05 879.56 749.8 879.194 750.362C878.96 750.716 878.572 750.911 878.176 750.911Z" fill="#E58B84"/>
<path d="M827.737 769.458C827.346 769.458 826.964 769.27 826.728 768.922C809.05 742.63 824.705 710.542 824.864 710.222C825.162 709.622 825.892 709.379 826.49 709.678C827.09 709.976 827.334 710.706 827.036 711.306C826.882 711.614 811.864 742.463 828.742 767.567C829.117 768.124 828.969 768.876 828.413 769.252C828.205 769.391 827.97 769.458 827.737 769.458Z" fill="#E58B84"/>
<path d="M933.738 675.32C933.524 675.32 933.307 675.264 933.11 675.145C922.772 668.884 916.504 661.422 914.478 652.97C912.008 642.673 916.8 634.785 917.006 634.454C917.359 633.886 918.104 633.71 918.674 634.062C919.244 634.414 919.42 635.162 919.068 635.733C919.024 635.805 914.599 643.145 916.847 652.446C918.728 660.228 924.623 667.166 934.368 673.069C934.94 673.416 935.124 674.162 934.776 674.736C934.548 675.113 934.148 675.32 933.738 675.32Z" fill="#E58B84"/>
<path d="M770.707 666.082C763.632 667.21 759.591 664.507 757.323 661.559C755.1 658.668 754.591 655.546 754.591 655.546L802.889 640.283C805.58 637.919 807.817 639.364 807.817 639.364L809.476 646.114L810.629 650.814C800.053 666.519 770.707 666.082 770.707 666.082Z" fill="#1913BE"/>
<path d="M809.476 646.114C799.855 651.143 776.98 661.849 757.323 661.559C755.1 658.669 754.591 655.545 754.591 655.545L802.889 640.283C805.58 637.919 807.817 639.365 807.817 639.365L809.476 646.114Z" fill="#130364"/>
<path d="M795.356 776.58C779.864 788.243 752.541 800.551 714.429 786.603C714.429 786.603 686.931 773.46 684.12 766.712C684.12 766.712 727.899 738.118 749.995 704.934C758.588 692.04 763.887 678.454 762.079 665.576C762.079 665.576 798.013 667.064 809.804 651.508L830.408 668.708C830.408 668.708 803.495 741.46 810.267 762.003C810.267 762.003 805.211 769.163 795.356 776.58Z" fill="#1913BE"/>
<path d="M684.763 767.816C674.555 772.668 670.471 765.344 670.471 765.344C668.181 763.575 667.357 760.497 667.179 757.456C666.921 753.063 668.043 748.773 668.043 748.773C742.631 719.935 752.421 651.097 752.421 651.097C752.811 651.039 753.202 651.092 753.598 651.232C757.475 652.525 761.677 661.931 761.677 661.931L762.722 666.68C764.235 718.12 684.763 767.816 684.763 767.816Z" fill="#1913BE"/>
<path d="M667.18 757.456C666.922 753.062 668.043 748.772 668.043 748.772C742.632 719.934 752.422 651.096 752.422 651.096C752.812 651.039 753.203 651.092 753.598 651.231C753.558 665.244 750.314 686.45 734.942 707.715C734.942 707.715 706.263 745.446 667.18 757.456Z" fill="#130364"/>
<path d="M763.467 669.369C762.848 669.369 762.32 668.897 762.261 668.271C762.197 667.603 762.688 667.011 763.355 666.949C763.611 666.924 789.196 664.405 805.853 653.905C806.421 653.548 807.169 653.717 807.527 654.285C807.884 654.851 807.715 655.6 807.147 655.957C789.993 666.772 764.653 669.264 763.583 669.364C763.544 669.368 763.505 669.369 763.467 669.369Z" fill="black"/>
<path d="M795.356 776.58C779.864 788.243 752.541 800.551 714.429 786.603C714.429 786.603 686.931 773.46 684.12 766.712C684.12 766.712 727.899 738.118 749.995 704.934C746.427 720.7 736.051 749.448 706.355 769.912C706.355 769.912 740.923 797.347 795.356 776.58Z" fill="#130364"/>
<path d="M789.228 715.934C788.638 715.934 788.119 715.502 788.03 714.9C785.202 695.89 763.515 671.745 763.296 671.505C762.847 671.008 762.884 670.24 763.382 669.792C763.879 669.341 764.646 669.378 765.095 669.876C766.008 670.885 787.495 694.813 790.43 714.542C790.528 715.205 790.071 715.822 789.408 715.921C789.347 715.93 789.288 715.934 789.228 715.934Z" fill="black"/>
<path d="M798.847 760.904C798.202 760.904 797.663 760.395 797.636 759.743C794.62 689.175 819.166 670.451 820.211 669.69C820.755 669.295 821.512 669.415 821.907 669.955C822.302 670.496 822.183 671.254 821.643 671.65C821.368 671.852 797.11 690.616 800.06 759.64C800.088 760.31 799.568 760.876 798.899 760.903C798.882 760.904 798.864 760.904 798.847 760.904Z" fill="#FF5A21"/>
<path d="M806.644 691.378C806.267 691.378 805.895 691.204 805.659 690.874C798.172 680.48 784.798 671.18 773.124 675.325C772.491 675.549 771.799 675.22 771.575 674.588C771.351 673.957 771.682 673.262 772.312 673.038C785.232 668.45 799.359 677.976 807.627 689.456C808.019 690 807.895 690.757 807.352 691.149C807.138 691.304 806.89 691.378 806.644 691.378Z" fill="#FF5A21"/>
<path d="M792.552 686.273C791.712 686.273 790.877 686.618 790.279 687.294C789.743 687.901 789.473 688.681 789.523 689.489C789.572 690.298 789.933 691.038 790.539 691.577C791.795 692.686 793.713 692.567 794.821 691.315C795.36 690.707 795.628 689.927 795.579 689.119C795.529 688.313 795.168 687.57 794.561 687.034C793.984 686.523 793.267 686.273 792.552 686.273ZM792.547 694.762C791.26 694.762 789.969 694.313 788.932 693.394C787.84 692.426 787.189 691.091 787.1 689.638C787.012 688.182 787.495 686.778 788.461 685.686C790.457 683.43 793.915 683.219 796.169 685.217C797.261 686.182 797.912 687.517 798 688.973C798.089 690.427 797.605 691.831 796.64 692.923L796.639 692.925C795.561 694.141 794.057 694.762 792.547 694.762Z" fill="#FF5A21"/>
<path d="M762.495 757.268C750.501 757.268 736.199 753.908 720.886 743.34C720.334 742.96 720.195 742.204 720.577 741.652C720.958 741.101 721.713 740.962 722.263 741.342C762.657 769.221 795.531 745.349 795.859 745.104C796.398 744.702 797.157 744.813 797.558 745.35C797.959 745.888 797.849 746.648 797.31 747.049C797.094 747.21 783.247 757.268 762.495 757.268Z" fill="#FF5A21"/>
<path d="M722.271 738.287C718.415 738.287 710.864 729.77 707.711 726.001C707.28 725.486 707.349 724.721 707.863 724.291C708.377 723.862 709.141 723.929 709.572 724.443C714.888 730.798 720.823 736.131 722.248 735.865C722.908 735.742 723.54 736.175 723.664 736.834C723.788 737.493 723.353 738.127 722.695 738.25C722.56 738.275 722.417 738.287 722.271 738.287Z" fill="#FF5A21"/>
<path d="M716.239 745.102C712.383 745.102 704.833 736.585 701.679 732.814C701.249 732.3 701.318 731.536 701.831 731.105C702.346 730.676 703.11 730.744 703.541 731.257C708.857 737.612 714.77 742.937 716.217 742.68C716.873 742.558 717.509 742.99 717.633 743.648C717.757 744.306 717.322 744.941 716.663 745.065C716.529 745.089 716.386 745.102 716.239 745.102Z" fill="#FF5A21"/>
<path d="M798.021 736.402L798.678 728.299L799.154 727.972C802.273 725.831 809.907 727.783 810.769 728.014C811.415 728.187 811.801 728.851 811.627 729.498C811.454 730.147 810.789 730.53 810.142 730.359C807.538 729.664 803.005 728.956 800.995 729.732L800.679 733.639L804.041 733.234C804.702 733.156 805.31 733.628 805.389 734.294C805.47 734.959 804.994 735.563 804.329 735.643L798.021 736.402Z" fill="#FF5A21"/>
<path d="M822.747 682.946C822.46 682.946 822.174 682.846 821.943 682.641C819.903 680.835 814.612 677.211 814.559 677.175C814.006 676.798 813.866 676.041 814.243 675.489C814.622 674.935 815.378 674.794 815.93 675.173C816.152 675.325 821.399 678.919 823.552 680.823C824.052 681.267 824.1 682.034 823.656 682.537C823.416 682.807 823.082 682.946 822.747 682.946Z" fill="#FF5A21"/>
<path d="M685.591 768.956C685.192 768.956 684.8 768.76 684.568 768.398C684.208 767.834 684.371 767.084 684.935 766.722C756.131 721.03 761.191 675.154 761.234 674.696C763.324 660.243 754.371 653.039 753.988 652.74C753.462 652.327 753.368 651.566 753.78 651.039C754.191 650.511 754.951 650.416 755.479 650.824C755.907 651.156 765.935 659.146 763.643 674.983C763.607 675.391 758.426 722.44 686.246 768.763C686.043 768.894 685.816 768.956 685.591 768.956Z" fill="black"/>
<path d="M774.809 788.377C774.809 788.377 773.334 773.572 773.334 773.568C773.393 774.174 763.038 775.66 762.392 775.74C757.684 776.33 752.922 776.488 748.19 776.145C743.684 775.818 738.97 773.406 734.529 775.697C728.945 778.576 725.604 784.778 721.574 789.33C721.574 789.33 721.377 790.774 726.689 793.316C726.689 793.316 746.482 798.412 773.806 790.73L774.809 788.377Z" fill="#009BE5"/>
<path d="M721.575 790.544C721.308 790.544 721.039 790.456 720.815 790.274C720.292 789.853 720.211 789.089 720.63 788.569L728.887 778.324C728.923 778.277 734.511 771.14 744.643 774.292C745.774 774.46 758.578 776.212 773.024 772.394L774.4 772.03L776.018 788.256C776.084 788.922 775.598 789.517 774.931 789.584C774.255 789.65 773.668 789.164 773.603 788.497L772.267 775.09C757.284 778.736 744.716 776.762 744.174 776.674L744.002 776.633C735.424 773.918 730.842 779.762 730.796 779.821L722.52 790.09C722.28 790.389 721.93 790.544 721.575 790.544Z" fill="#FF5A21"/>
<path d="M588.687 352.318C578.483 338.859 559.301 319.903 545.285 306.61C535.531 297.358 528.267 290.852 528.267 290.852L581.787 241.111C587.428 244.046 594.929 249.666 603.084 256.496C628.664 277.971 660.549 311.464 660.549 311.464C651.541 307.358 588.687 352.318 588.687 352.318Z" fill="#009CE7"/>
<path d="M588.686 352.318C579.382 340.043 562.612 323.203 549.101 310.255C547.798 308.996 546.522 307.78 545.285 306.61C564.369 282.491 587.512 265.928 603.084 256.496C604.84 257.967 606.622 259.498 608.414 261.07C632.89 282.404 660.549 311.464 660.549 311.464C651.541 307.358 588.686 352.318 588.686 352.318Z" fill="#EEFAF7"/>
<path d="M588.691 357.779C587.027 357.779 585.385 357.021 584.312 355.585C582.507 353.169 583.003 349.748 585.42 347.943C595.103 340.711 644.219 304.668 660.98 306.021C663.987 306.259 666.231 308.888 665.993 311.893C665.756 314.9 663.125 317.147 660.12 316.908C650.812 316.185 614.663 339.731 591.953 356.692C590.973 357.424 589.828 357.779 588.691 357.779Z" fill="#FFF47A"/>
<path d="M549.101 310.255C547.798 308.997 546.522 307.781 545.286 306.611C564.369 282.492 587.513 265.928 603.083 256.497C604.841 257.968 606.623 259.499 608.414 261.071C598.131 267.399 573.958 283.744 549.101 310.255Z" fill="#FFF47A"/>
<path d="M603.907 261.896C603.824 261.709 603.859 261.484 604.011 261.331C604.21 261.131 604.532 261.129 604.732 261.327L653.439 309.46C653.64 309.659 653.643 309.981 653.443 310.181C653.246 310.383 652.924 310.384 652.723 310.187L604.015 262.052C603.968 262.005 603.932 261.952 603.907 261.896Z" fill="#FFF47A"/>
<path d="M598.267 264.39C598.185 264.203 598.219 263.979 598.37 263.826C598.567 263.625 598.89 263.622 599.091 263.819L647.633 311.578C647.833 311.777 647.837 312.098 647.638 312.299C647.442 312.499 647.119 312.502 646.917 312.305L598.375 264.547C598.329 264.501 598.293 264.446 598.267 264.39Z" fill="#FFF47A"/>
<path d="M594.767 268.335C594.685 268.148 594.719 267.921 594.873 267.768C595.073 267.569 595.395 267.569 595.594 267.768L643.399 315.553C643.597 315.752 643.598 316.075 643.399 316.273C643.199 316.473 642.877 316.473 642.678 316.273L594.873 268.489C594.827 268.444 594.793 268.391 594.767 268.335Z" fill="#FFF47A"/>
<path d="M589.808 272.027C589.725 271.839 589.761 271.611 589.916 271.457C590.116 271.26 590.439 271.261 590.636 271.463L637.829 319.219C638.025 319.419 638.025 319.741 637.825 319.939C637.624 320.137 637.301 320.135 637.104 319.935L589.911 272.179C589.867 272.133 589.833 272.081 589.808 272.027Z" fill="#FFF47A"/>
<path d="M579.618 274.735C579.535 274.549 579.57 274.323 579.722 274.17C579.922 273.97 580.243 273.969 580.443 274.167L629.665 323.125C629.866 323.322 629.866 323.646 629.667 323.845C629.469 324.043 629.146 324.045 628.946 323.846L579.725 274.89C579.678 274.845 579.643 274.791 579.618 274.735Z" fill="#FFF47A"/>
<path d="M575.259 283.855C575.181 283.678 575.209 283.462 575.346 283.308C575.534 283.099 575.857 283.08 576.066 283.27L624.795 327.048C625.006 327.238 625.022 327.559 624.835 327.768C624.646 327.978 624.325 327.995 624.115 327.807L575.386 284.027C575.33 283.978 575.287 283.919 575.259 283.855Z" fill="#FFF47A"/>
<path d="M568.049 285.845C567.967 285.661 567.999 285.44 568.147 285.285C568.343 285.082 568.665 285.076 568.867 285.27L617.343 331.861C617.546 332.054 617.553 332.378 617.357 332.581C617.162 332.785 616.839 332.79 616.635 332.596L568.162 286.006C568.113 285.958 568.075 285.904 568.049 285.845Z" fill="#FFF47A"/>
<path d="M567.2 293.413C567.115 293.218 567.157 292.981 567.324 292.83C567.532 292.64 567.853 292.656 568.044 292.864L610.035 339.024C610.224 339.232 610.209 339.554 610.001 339.744C609.792 339.933 609.469 339.918 609.281 339.71L567.288 293.55C567.251 293.508 567.223 293.462 567.2 293.413Z" fill="#FFF47A"/>
<path d="M560.1 295.654C560.013 295.458 560.057 295.219 560.227 295.068C560.436 294.88 560.759 294.898 560.947 295.107L603.603 342.771C603.791 342.98 603.772 343.303 603.563 343.491C603.352 343.679 603.031 343.66 602.843 343.451L560.185 295.787C560.149 295.747 560.121 295.702 560.1 295.654Z" fill="#FFF47A"/>
<path d="M557.035 298.208C556.948 298.011 556.992 297.772 557.161 297.622C557.372 297.434 557.693 297.452 557.881 297.663L598.315 343.014C598.501 343.223 598.484 343.544 598.275 343.734C598.063 343.92 597.741 343.902 597.555 343.691L557.119 298.342C557.084 298.3 557.056 298.255 557.035 298.208Z" fill="#FFF47A"/>
<path d="M553.853 303.212C553.769 303.02 553.807 302.788 553.969 302.636C554.173 302.441 554.495 302.45 554.689 302.654L595.713 345.946C595.906 346.15 595.897 346.473 595.693 346.668C595.489 346.861 595.165 346.852 594.971 346.648L553.949 303.356C553.907 303.312 553.877 303.264 553.853 303.212Z" fill="#FFF47A"/>
<path d="M549.837 307.684C549.754 307.495 549.791 307.267 549.947 307.114C550.147 306.916 550.471 306.92 550.667 307.122L591.165 348.548C591.362 348.75 591.359 349.072 591.157 349.268C590.955 349.466 590.633 349.462 590.435 349.262L549.939 307.835C549.895 307.79 549.862 307.739 549.837 307.684Z" fill="#FFF47A"/>
<path d="M463.517 227.026L529.147 128.459C529.147 128.459 548.155 99.6395 569.845 97.4995C569.845 97.4995 601.095 103.258 588.035 140.21C586.577 144.322 584.582 148.84 581.918 153.772C581.918 153.772 572.547 180.498 576.891 195.12L588.911 235.891C588.911 235.891 583.921 238.678 576.658 244.194C574.323 245.963 571.759 248.018 569.045 250.348C557.423 260.316 543.101 275.42 533.147 295.498L497.537 260.488L463.517 227.026Z" fill="#FF0000"/>
<path d="M474.259 235.013C473.795 235.013 473.326 234.881 472.911 234.602C471.798 233.857 471.5 232.349 472.246 231.235L528.447 147.353C550.904 110.795 577.302 103.274 578.415 102.973C579.712 102.623 581.042 103.386 581.394 104.678C581.744 105.971 580.983 107.302 579.691 107.655C579.347 107.751 553.919 115.159 532.531 149.974L476.278 233.937C475.81 234.635 475.042 235.013 474.259 235.013Z" fill="#003493"/>
<path d="M565.083 165.205C569.234 147.445 580.922 141.919 588.035 140.21C586.576 144.322 584.582 148.839 581.918 153.771C581.918 153.771 572.548 180.498 576.891 195.119L588.911 235.893C588.911 235.893 583.92 238.678 576.659 244.194C559.62 207.458 565.083 165.205 565.083 165.205Z" fill="#003493"/>
<path d="M588.911 235.892L600.683 252.043C600.683 252.043 588.176 271.2 569.331 249.393C569.331 249.393 589.079 236.404 588.911 235.892Z" fill="#FF0000"/>
<path d="M497.536 260.487C514.953 258.46 526.096 245.584 526.096 245.584C553.927 225.858 569.325 249.391 569.325 249.391C569.325 249.391 569.228 249.716 569.044 250.347C557.423 260.316 543.1 275.419 533.147 295.498L497.536 260.487Z" fill="#003493"/>
<path d="M583.734 228.017L583.736 227.814C583.679 227.847 583.622 227.878 583.563 227.91C583.619 227.946 583.678 227.982 583.734 228.017ZM600.686 223.677C604.839 222.277 610.356 219.363 612.124 213.531C612.82 211.231 612.991 208.162 611.931 207.006C611.759 206.818 611.231 206.242 609.464 206.613C605.202 207.51 601.395 211.822 598.039 215.629C596.647 217.206 595.332 218.697 594.008 219.943C593.946 220.003 590.546 223.145 586.947 225.731C591.446 225.643 595.224 225.171 598.66 224.279C599.275 224.121 599.96 223.922 600.686 223.677ZM607.403 203.795C607.858 203.642 608.319 203.515 608.791 203.415C611.759 202.793 613.447 203.823 614.34 204.799C616.474 207.126 616.163 211.467 615.252 214.479C613.37 220.686 607.768 225.285 599.483 227.442C595.395 228.502 590.899 229.009 585.443 229.015C604.203 239.238 626.282 227.963 626.519 227.839L628.035 230.734C626.912 231.322 600.312 244.937 579.14 228.81L579.138 228.809L581.118 226.21C580.75 225.927 580.364 225.927 580.259 225.95C581.919 225.619 590.044 219.19 591.767 217.566C592.983 216.421 594.248 214.987 595.588 213.466C598.954 209.651 602.73 205.37 607.403 203.795Z" fill="black"/>
<path d="M587.633 216.832C589.544 214.008 591.113 211.056 592.307 208.047C595.772 199.31 596.421 187.356 590.064 180.348L589.941 180.212C589.835 180.094 589.604 179.832 589.376 179.616C588.264 183.41 588.328 188.192 588.392 192.822C588.421 194.852 588.447 196.771 588.375 198.575L587.633 216.832ZM588.301 176.138C589.517 175.728 590.884 176.363 592.377 178.034C599.785 186.202 599.181 199.571 595.344 209.251C593.976 212.703 592.148 216.079 589.913 219.286C589.741 219.532 589.363 219.958 588.913 220.443C588.464 220.928 587.531 221.94 587.367 222.303C587.368 222.302 587.417 222.19 587.425 222.002L584.16 221.87L585.109 198.443C585.179 196.727 585.153 194.852 585.125 192.866C585.057 187.923 584.988 182.811 586.296 178.507C586.48 177.907 586.777 177.146 587.469 176.6C587.737 176.388 588.016 176.235 588.301 176.138Z" fill="black"/>
<path d="M499.148 113.22C495.509 102.425 501.31 90.7249 512.105 87.0863C522.898 83.4476 534.6 89.2476 538.238 100.042C541.877 110.837 536.076 122.537 525.282 126.176C514.488 129.814 502.786 124.014 499.148 113.22Z" fill="black"/>
<path d="M506.742 110.661C504.516 104.059 508.063 96.9045 514.664 94.6792C521.266 92.4538 528.42 96.0018 530.646 102.603C532.871 109.203 529.324 116.358 522.722 118.583C516.122 120.809 508.967 117.262 506.742 110.661Z" fill="#FF0000"/>
<path d="M511.839 108.942C510.563 105.156 512.596 101.052 516.382 99.7763C520.168 98.5003 524.271 100.535 525.547 104.32C526.823 108.107 524.79 112.21 521.003 113.486C517.218 114.762 513.115 112.727 511.839 108.942Z" fill="white"/>
<path d="M433.528 206.24C429.421 194.056 435.968 180.851 448.152 176.743C460.334 172.636 473.542 179.184 477.649 191.368C481.756 203.551 475.209 216.758 463.025 220.864C450.84 224.972 437.634 218.424 433.528 206.24Z" fill="black"/>
<path d="M442.099 203.352C439.587 195.901 443.591 187.825 451.041 185.313C458.492 182.802 466.568 186.806 469.079 194.257C471.591 201.708 467.587 209.784 460.136 212.294C452.685 214.806 444.611 210.802 442.099 203.352Z" fill="#FF0000"/>
<path d="M447.852 201.412C446.411 197.139 448.708 192.508 452.98 191.067C457.254 189.627 461.884 191.923 463.324 196.196C464.766 200.468 462.47 205.1 458.196 206.542C453.924 207.982 449.292 205.686 447.852 201.412Z" fill="white"/>
<path d="M517.112 240.014C507.905 242.902 498.1 237.779 495.212 228.571C492.324 219.363 497.448 209.559 506.654 206.671C515.862 203.783 525.666 208.906 528.554 218.114C531.442 227.321 526.318 237.126 517.112 240.014Z" fill="#003493"/>
<path d="M574.431 247.299C573.49 247.299 572.594 246.748 572.199 245.828C554.702 205.027 551.163 173.719 561.681 152.776C569.89 136.432 583.69 132.966 584.274 132.827C585.578 132.516 586.887 133.319 587.198 134.622C587.51 135.922 586.71 137.23 585.411 137.544C584.91 137.668 573.095 140.734 565.951 155.091C559.241 168.574 555.653 194.93 576.661 243.915C577.189 245.147 576.618 246.574 575.386 247.102C575.074 247.236 574.75 247.299 574.431 247.299Z" fill="#003493"/>
<mask id="mask1_705_794" style="mask-type:luminance" maskUnits="userSpaceOnUse" x="893" y="-186" width="511" height="483">
<path d="M1045.68 -185.06L1403.78 114.605L1251.61 296.45L893.511 -3.21509L1045.68 -185.06Z" fill="white"/>
</mask>
<g mask="url(#mask1_705_794)">
<path d="M1382.53 133.989C1368.6 175.614 1252.59 174.304 1123.41 131.063C994.24 87.8217 900.823 19.0227 914.757 -22.6032C928.691 -64.2283 1044.7 -62.9187 1173.88 -19.6785C1303.05 23.5635 1396.47 92.3626 1382.53 133.989Z" fill="black"/>
<path d="M1382.53 133.989C1368.6 175.614 1252.59 174.304 1123.41 131.063C994.24 87.8217 900.823 19.0227 914.757 -22.6032C928.691 -64.2283 1044.7 -62.9187 1173.88 -19.6785C1303.05 23.5635 1396.47 92.3626 1382.53 133.989Z" stroke="black" stroke-width="4" stroke-miterlimit="10"/>
</g>
<path d="M1382.2 130.232C1368.26 171.858 1252.25 170.547 1123.08 127.306C993.907 84.0652 900.49 15.2661 914.424 -26.3598C928.358 -67.9849 1044.37 -66.6753 1173.54 -23.4351C1302.72 19.8069 1396.13 88.606 1382.2 130.232Z" fill="#FF34A3"/>
<path d="M1382.2 130.232C1368.26 171.858 1252.25 170.547 1123.08 127.306C993.907 84.0652 900.49 15.2661 914.424 -26.3598C928.358 -67.9849 1044.37 -66.6753 1173.54 -23.4351C1302.72 19.8069 1396.13 88.606 1382.2 130.232Z" stroke="black" stroke-width="4" stroke-miterlimit="10"/>
<path d="M1031.15 37.6913L1037.44 18.8819L1023.07 14.0781L1016.78 32.8876L1000.23 27.3545L1017.84 -25.3119L1034.39 -19.7788L1028.1 -0.969391L1042.47 3.83432L1048.76 -14.9751L1065.31 -9.44203L1047.71 43.2244L1031.15 37.6913ZM1056.36 46.1161L1069.18 7.74483L1084.98 13.0264L1072.16 51.3976L1056.36 46.1161ZM1070.26 4.00788L1073.81 -6.60064L1089.91 -1.21847L1086.37 9.39005L1070.26 4.00788ZM1075.93 67.7148L1093.28 15.8008L1109.08 21.0824L1102.08 29.7814L1103.96 30.4101C1108.43 24.2929 1113.85 21.3373 1120.17 23.4499C1125.06 25.0847 1128.32 28.5995 1129.67 33.3169C1130.89 37.6579 1130.69 43.0262 1128.7 48.97C1126.71 54.9138 1123.65 59.3264 1120.06 62.0577C1116.14 65.0146 1111.43 65.8635 1106.54 64.2287C1100.22 62.1161 1097.66 56.4946 1097.77 48.9186L1095.89 48.2898L1096.26 59.4536L1091.73 72.9964L1075.93 67.7148ZM1102.52 40.2177C1101.84 42.2491 1101.81 44.0804 1102.24 45.5608C1102.71 47.1417 1103.84 48.2715 1105.42 48.7997C1107 49.3278 1108.58 49.1034 1109.91 48.1262C1111.14 47.199 1112.22 45.7198 1112.9 43.6884C1113.58 41.657 1113.61 39.8257 1113.18 38.3453C1112.71 36.7644 1111.58 35.6346 1110 35.1064C1108.42 34.5783 1106.84 34.8027 1105.51 35.7799C1104.28 36.7071 1103.2 38.1863 1102.52 40.2177ZM1159.95 80.7465L1166.24 61.9371L1151.87 57.1333L1145.58 75.9428L1129.03 70.4097L1146.64 17.7433L1163.19 23.2764L1156.9 42.0858L1171.27 46.8895L1177.56 28.0801L1194.11 33.6132L1176.51 86.2795L1159.95 80.7465ZM1203.11 96.5117C1195.51 93.9715 1190.3 88.7993 1188.45 82.3255C1187.3 78.2605 1187.38 73.7701 1188.94 69.1054C1190.5 64.4406 1193.13 60.8054 1196.5 58.2494C1201.87 54.19 1209.14 53.1927 1216.74 55.7329C1224.34 58.2731 1229.56 63.4453 1231.41 69.9192C1232.56 73.9841 1232.48 78.4745 1230.92 83.1392C1229.36 87.804 1226.72 91.4393 1223.36 93.9952C1217.99 98.0546 1210.71 99.0519 1203.11 96.5117ZM1204.74 74.3869C1204.08 76.3431 1204.01 78.074 1204.43 79.5545C1204.88 81.2105 1205.98 82.4156 1207.64 82.9689C1209.29 83.5222 1210.9 83.2226 1212.26 82.1701C1213.49 81.243 1214.47 79.8139 1215.12 77.8577C1215.77 75.9015 1215.85 74.1706 1215.42 72.6902C1214.97 71.0341 1213.87 69.829 1212.22 69.2757C1210.56 68.7224 1208.96 69.022 1207.6 70.0745C1206.37 71.0017 1205.39 72.4308 1204.74 74.3869ZM1225.6 117.745L1242.95 65.8313L1258.75 71.1128L1251.74 79.8118L1253.62 80.4406C1258.09 74.3233 1263.52 71.3677 1269.84 73.4804C1274.73 75.1151 1277.98 78.63 1279.33 83.3474C1280.56 87.6884 1280.36 93.0567 1278.37 99.0005C1276.38 104.944 1273.32 109.357 1269.73 112.088C1265.81 115.045 1261.09 115.894 1256.2 114.259C1249.88 112.147 1247.33 106.525 1247.44 98.9491L1245.56 98.3203L1245.92 109.484L1241.4 123.027L1225.6 117.745ZM1252.19 90.2481C1251.51 92.2796 1251.48 94.1108 1251.91 95.5913C1252.38 97.1721 1253.51 98.302 1255.09 98.8301C1256.67 99.3583 1258.25 99.1339 1259.58 98.1566C1260.81 97.2295 1261.89 95.7503 1262.57 93.7189C1263.25 91.6875 1263.27 89.8562 1262.85 88.3757C1262.37 86.7949 1261.25 85.665 1259.67 85.1369C1258.09 84.6087 1256.51 84.8332 1255.17 85.8104C1253.94 86.7375 1252.86 88.2167 1252.19 90.2481ZM1295.42 106.205L1286.46 103.212L1296.58 66.6953L1309.3 70.9457L1295.42 106.205ZM1280.23 115.098C1281 112.791 1282.17 111.395 1283.72 110.912C1285.3 110.378 1286.99 110.413 1288.79 111.016C1290.55 111.603 1291.89 112.583 1292.83 113.955C1293.78 115.277 1293.87 117.091 1293.1 119.399C1292.36 121.606 1291.2 123.001 1289.61 123.585C1288.04 124.119 1286.37 124.093 1284.62 123.506C1282.81 122.902 1281.44 121.914 1280.5 120.542C1279.59 119.12 1279.5 117.305 1280.23 115.098Z" fill="black"/>
<path d="M1331.22 343.292L1337.93 354.236C1341.88 360.661 1348.91 364.54 1356.45 364.448L1369.29 364.292L1358.34 371.008C1351.92 374.951 1348.04 381.983 1348.13 389.52L1348.29 402.361L1341.57 391.416C1337.63 384.991 1330.6 381.112 1323.06 381.204L1310.22 381.361L1321.16 374.644C1327.59 370.701 1331.47 363.669 1331.37 356.132L1331.22 343.292Z" fill="#FFFF42"/>
<path d="M1331.22 343.292L1337.93 354.236C1341.88 360.661 1348.91 364.54 1356.45 364.448L1369.29 364.292L1358.34 371.008C1351.92 374.951 1348.04 381.983 1348.13 389.52L1348.29 402.361L1341.57 391.416C1337.63 384.991 1330.6 381.112 1323.06 381.204L1310.22 381.361L1321.16 374.644C1327.59 370.701 1331.47 363.669 1331.37 356.132L1331.22 343.292Z" stroke="black" stroke-width="4" stroke-miterlimit="10"/>
<path d="M1187.53 266.87L1194.25 277.815C1198.19 284.24 1205.23 288.119 1212.76 288.027L1225.6 287.87L1214.66 294.586C1208.23 298.53 1204.36 305.561 1204.45 313.099L1204.6 325.939L1197.89 314.995C1193.94 308.57 1186.91 304.69 1179.38 304.782L1166.53 304.94L1177.48 298.223C1183.91 294.28 1187.78 287.248 1187.69 279.711L1187.53 266.87Z" fill="#FFFF42"/>
<path d="M1187.53 266.87L1194.25 277.815C1198.19 284.24 1205.23 288.119 1212.76 288.027L1225.6 287.87L1214.66 294.586C1208.23 298.53 1204.36 305.561 1204.45 313.099L1204.6 325.939L1197.89 314.995C1193.94 308.57 1186.91 304.69 1179.38 304.782L1166.53 304.94L1177.48 298.223C1183.91 294.28 1187.78 287.248 1187.69 279.711L1187.53 266.87Z" stroke="black" stroke-width="4" stroke-miterlimit="10"/>
<path d="M1487.34 1260.75L1486.04 1274.47C1485.27 1282.53 1488.8 1290.4 1495.33 1295.19L1506.45 1303.34L1492.72 1302.04C1484.66 1301.27 1476.79 1304.8 1472.01 1311.33L1463.85 1322.45L1465.15 1308.72C1465.92 1300.66 1462.39 1292.79 1455.86 1288.01L1444.75 1279.85L1458.47 1281.15C1466.53 1281.92 1474.4 1278.39 1479.19 1271.86L1487.34 1260.75Z" fill="#FFFF42"/>
<path d="M1487.34 1260.75L1486.04 1274.47C1485.27 1282.53 1488.8 1290.4 1495.33 1295.19L1506.45 1303.34L1492.72 1302.04C1484.66 1301.27 1476.79 1304.8 1472.01 1311.33L1463.85 1322.45L1465.15 1308.72C1465.92 1300.66 1462.39 1292.79 1455.86 1288.01L1444.75 1279.85L1458.47 1281.15C1466.53 1281.92 1474.4 1278.39 1479.19 1271.86L1487.34 1260.75Z" stroke="black" stroke-width="4" stroke-miterlimit="10"/>
<path d="M1250.32 280.15L1251.51 262.125L1261.25 277.341C1275.99 300.371 1300.78 315.032 1328.06 316.842L1346.09 318.038L1330.87 327.775C1307.84 342.511 1293.18 367.31 1291.37 394.59L1290.18 412.615L1280.44 397.399C1265.7 374.369 1240.91 359.708 1213.62 357.898L1195.6 356.702L1210.82 346.965C1233.85 332.229 1248.51 307.43 1250.32 280.15Z" fill="#AF78FE" stroke="black" stroke-width="4"/>
<path d="M1436.5 1074L1453.3 1048.32L1455.02 1078.96C1457.33 1120.2 1479.09 1157.88 1513.64 1180.5L1539.32 1197.3L1508.68 1199.02C1467.45 1201.33 1429.76 1223.09 1407.14 1257.64L1390.34 1283.32L1388.62 1252.68C1386.31 1211.44 1364.55 1173.76 1330 1151.14L1304.32 1134.34L1334.96 1132.62C1376.2 1130.31 1413.88 1108.55 1436.5 1074Z" fill="#AF78FE" stroke="black" stroke-width="4"/>
<path d="M56.825 1102.02L56.3388 1117.67C56.052 1126.86 60.6041 1135.51 68.3246 1140.46L81.4749 1148.87L65.8686 1148.41C56.706 1148.15 48.0685 1152.73 43.1274 1160.48L34.7077 1173.68L35.1949 1158.03C35.4817 1148.84 30.9296 1140.19 23.2092 1135.25L10.0585 1126.83L25.6651 1127.29C34.8277 1127.56 43.4652 1122.98 48.4064 1115.22L56.825 1102.02Z" fill="#FFFF42"/>
<path d="M56.825 1102.02L56.3388 1117.67C56.052 1126.86 60.6041 1135.51 68.3246 1140.46L81.4749 1148.87L65.8686 1148.41C56.706 1148.15 48.0685 1152.73 43.1274 1160.48L34.7077 1173.68L35.1949 1158.03C35.4817 1148.84 30.9296 1140.19 23.2092 1135.25L10.0585 1126.83L25.6651 1127.29C34.8277 1127.56 43.4652 1122.98 48.4064 1115.22L56.825 1102.02Z" stroke="black" stroke-width="4" stroke-miterlimit="10"/>
<path d="M129.191 1026.57L136.583 1013.28L138.522 1028.36C141.606 1052.34 155.897 1073.44 177.029 1085.19L190.318 1092.58L175.235 1094.52C151.252 1097.61 130.16 1111.9 118.406 1133.03L111.014 1146.32L109.075 1131.24C105.992 1107.25 91.6999 1086.16 70.5686 1074.41L57.2792 1067.01L72.362 1065.08C96.3448 1061.99 117.437 1047.7 129.191 1026.57Z" fill="#AF78FE" stroke="black" stroke-width="4"/>
<mask id="mask2_705_794" style="mask-type:luminance" maskUnits="userSpaceOnUse" x="294" y="1079" width="493" height="292">
<path d="M322.917 1079.74L786.532 1135.38L758.278 1370.81L294.663 1315.17L322.917 1079.74Z" fill="white"/>
</mask>
<g mask="url(#mask2_705_794)">
<path d="M779.306 1163.22C790.35 1205.71 692.428 1267.93 560.591 1302.2C428.754 1336.47 312.927 1329.81 301.883 1287.33C290.84 1244.84 388.761 1182.62 520.597 1148.35C652.435 1114.08 768.261 1120.74 779.306 1163.22Z" fill="black"/>
<path d="M779.306 1163.22C790.35 1205.71 692.428 1267.93 560.591 1302.2C428.754 1336.47 312.927 1329.81 301.883 1287.33C290.84 1244.84 388.761 1182.62 520.597 1148.35C652.435 1114.08 768.261 1120.74 779.306 1163.22Z" stroke="black" stroke-width="4" stroke-miterlimit="10"/>
</g>
<path d="M776.976 1160.26C788.02 1202.74 690.097 1264.96 558.261 1299.23C426.423 1333.5 310.597 1326.85 299.553 1284.36C288.51 1241.88 386.431 1179.66 518.267 1145.38C650.105 1111.11 765.931 1117.77 776.976 1160.26Z" fill="#FF34A3"/>
<path d="M776.976 1160.26C788.02 1202.74 690.097 1264.96 558.261 1299.23C426.423 1333.5 310.597 1326.85 299.553 1284.36C288.51 1241.88 386.431 1179.66 518.267 1145.38C650.105 1111.11 765.931 1117.77 776.976 1160.26Z" stroke="black" stroke-width="4" stroke-miterlimit="10"/>
<path d="M437.396 1273L423.402 1219.26L447.201 1213.06C459.407 1209.88 469.755 1213.42 475.962 1222.46C478.03 1225.36 479.624 1228.96 480.683 1233.03C481.743 1237.1 482.088 1240.95 481.776 1244.47C480.787 1255.47 473.555 1263.58 461.195 1266.8L437.396 1273ZM450.287 1253.24L457.196 1251.45C461.035 1250.45 463.276 1247.4 463.601 1243.3C463.719 1241.55 463.566 1239.7 463.026 1237.63C462.487 1235.56 461.7 1233.8 460.742 1232.32C458.381 1228.92 454.961 1227.43 451.199 1228.41L444.29 1230.21L450.287 1253.24ZM493.465 1258.4L483.269 1219.24L499.391 1215.05L509.587 1254.2L493.465 1258.4ZM482.136 1215.52L479.317 1204.7L495.746 1200.42L498.565 1211.24L482.136 1215.52ZM533.402 1249.23C521.963 1252.2 514.429 1249.08 512.19 1240.49L512.15 1240.33L526.582 1236.57L526.622 1236.73C527.062 1238.42 528.607 1239 530.603 1238.48C531.832 1238.16 532.539 1237.73 532.88 1237.15C533.107 1236.76 533.161 1236.34 533.001 1235.72C532.741 1234.72 531.773 1234.16 529.908 1234.23L521.597 1234.43C514.749 1234.57 510.351 1231.54 508.632 1224.93C507.832 1221.86 508.207 1218.9 509.74 1216.28C512.012 1212.41 516.619 1209.33 523.374 1207.57C534.583 1204.65 542.157 1207.93 544.416 1216.6L544.476 1216.83L529.89 1220.63L529.83 1220.4C529.35 1218.56 527.612 1217.86 525.616 1218.38C524.387 1218.7 523.68 1219.13 523.339 1219.71C523.112 1220.1 523.058 1220.52 523.178 1220.98C523.418 1221.9 524.269 1222.34 527.039 1222.27L532.426 1222.18C541.564 1222.02 546.035 1224.7 547.834 1231.61C548.714 1234.99 548.339 1237.96 546.806 1240.57C544.535 1244.44 540.158 1247.47 533.402 1249.23ZM575.476 1238.35C568.029 1240.29 561.361 1239.24 556.414 1235.04C553.154 1232.28 550.71 1228.24 549.33 1222.94C547.971 1217.72 548.213 1212.99 549.657 1209.09C551.905 1202.93 557.347 1198.64 565.024 1196.64C576.463 1193.66 585.866 1197.03 589.422 1208.49L573.608 1212.61C572.587 1210.58 570.849 1209.88 568.699 1210.44C567.164 1210.84 566.116 1211.85 565.534 1213.4C564.953 1214.94 564.912 1216.67 565.472 1218.82C566.012 1220.9 566.932 1222.54 568.096 1223.55C569.261 1224.56 570.572 1224.87 571.954 1224.51C574.027 1223.97 575.186 1222.44 575.03 1220.27L590.844 1216.15C593.325 1227.88 586.838 1235.39 575.476 1238.35ZM620.099 1226.73C612.346 1228.75 605.154 1227.26 600.07 1222.85C596.887 1220.07 594.502 1216.26 593.263 1211.5C592.023 1206.74 592.249 1202.26 593.672 1198.28C595.958 1191.95 601.51 1187.14 609.264 1185.12C617.018 1183.1 624.209 1184.59 629.293 1189C632.476 1191.78 634.861 1195.59 636.1 1200.35C637.34 1205.11 637.114 1209.59 635.691 1213.57C633.405 1219.9 627.853 1224.71 620.099 1226.73ZM609.384 1207.31C609.904 1209.3 610.785 1210.79 611.949 1211.8C613.23 1212.94 614.812 1213.35 616.501 1212.91C618.19 1212.47 619.372 1211.34 619.933 1209.72C620.458 1208.27 620.498 1206.54 619.979 1204.55C619.459 1202.55 618.578 1201.06 617.414 1200.05C616.133 1198.91 614.551 1198.5 612.862 1198.94C611.173 1199.38 609.991 1200.51 609.43 1202.13C608.905 1203.58 608.865 1205.31 609.384 1207.31ZM653.553 1197.28L644.418 1199.66L632.963 1163.54L645.937 1160.16L653.553 1197.28ZM645.684 1213.02C645.071 1210.66 645.284 1208.86 646.323 1207.61C647.35 1206.3 648.784 1205.41 650.627 1204.93C652.418 1204.46 654.08 1204.55 655.613 1205.19C657.132 1205.77 658.198 1207.25 658.811 1209.6C659.398 1211.85 659.184 1213.66 658.171 1215.01C657.145 1216.32 655.736 1217.2 653.945 1217.67C652.103 1218.15 650.415 1218.07 648.882 1217.43C647.336 1216.74 646.27 1215.27 645.684 1213.02Z" fill="black"/>
<mask id="mask3_705_794" style="mask-type:luminance" maskUnits="userSpaceOnUse" x="769" y="1193" width="521" height="457">
<path d="M900.182 1193.92L1289.88 1451.16L1159.26 1649.05L769.557 1391.82L900.182 1193.92Z" fill="white"/>
</mask>
<g mask="url(#mask3_705_794)">
<path d="M1270.96 1472.82C1261.82 1515.76 1146.41 1527.58 1013.17 1499.23C879.937 1470.87 779.337 1413.08 788.473 1370.15C797.609 1327.21 913.023 1315.39 1046.26 1343.74C1179.49 1372.1 1280.09 1429.89 1270.96 1472.82Z" fill="black"/>
<path d="M1270.96 1472.82C1261.82 1515.76 1146.41 1527.58 1013.17 1499.23C879.937 1470.87 779.337 1413.08 788.473 1370.15C797.609 1327.21 913.023 1315.39 1046.26 1343.74C1179.49 1372.1 1280.09 1429.89 1270.96 1472.82Z" stroke="black" stroke-width="4" stroke-miterlimit="10"/>
</g>
<path d="M1270.2 1469.13C1261.07 1512.06 1145.65 1523.88 1012.42 1495.53C879.181 1467.18 778.581 1409.39 787.717 1366.45C796.854 1323.52 912.268 1311.7 1045.5 1340.05C1178.74 1368.4 1279.34 1426.19 1270.2 1469.13Z" fill="#FF34A3"/>
<path d="M1270.2 1469.13C1261.07 1512.06 1145.65 1523.88 1012.42 1495.53C879.181 1467.18 778.581 1409.39 787.717 1366.45C796.854 1323.52 912.268 1311.7 1045.5 1340.05C1178.74 1368.4 1279.34 1426.19 1270.2 1469.13Z" fill="#FF34A3"/>
<path d="M1270.2 1469.13C1261.07 1512.06 1145.65 1523.88 1012.42 1495.53C879.181 1467.18 778.581 1409.39 787.717 1366.45C796.854 1323.52 912.268 1311.7 1045.5 1340.05C1178.74 1368.4 1279.34 1426.19 1270.2 1469.13Z" stroke="black" stroke-width="4" stroke-miterlimit="10"/>
<path d="M927.853 1420.48L939.387 1366.16L965.694 1371.75C972.755 1373.25 977.9 1377.66 979.822 1383.51C980.708 1386.21 980.83 1389.07 980.187 1392.1C979.478 1395.43 978.363 1397.63 976.456 1399.74C973.901 1402.6 969.543 1404.03 964.64 1404.21L964.327 1405.68L968.908 1407.79L972.938 1430.05L953.693 1425.97L950.194 1406.17L948.797 1405.87L944.925 1424.11L927.853 1420.48ZM951.532 1392.99L956.499 1394.04C958.594 1394.49 960.405 1393.98 961.571 1392.69C961.997 1392.21 962.411 1391.41 962.56 1390.71C962.724 1389.93 962.673 1389.03 962.478 1388.42C961.937 1386.76 960.456 1385.72 958.361 1385.27L953.394 1384.22L951.532 1392.99ZM995.999 1436.25C988.162 1434.58 982.396 1430.04 979.825 1423.81C978.222 1419.9 977.793 1415.43 978.814 1410.62C979.836 1405.81 982.045 1401.9 985.098 1398.98C989.976 1394.34 997.093 1392.53 1004.93 1394.19C1012.77 1395.85 1018.53 1400.4 1021.1 1406.63C1022.71 1410.53 1023.14 1415.01 1022.12 1419.82C1021.09 1424.63 1018.88 1428.54 1015.83 1431.46C1010.95 1436.1 1003.84 1437.91 995.999 1436.25ZM995.11 1414.08C994.682 1416.1 994.802 1417.83 995.391 1419.25C996.026 1420.85 997.258 1421.92 998.965 1422.28C1000.67 1422.64 1002.23 1422.16 1003.46 1420.96C1004.58 1419.9 1005.39 1418.37 1005.82 1416.36C1006.25 1414.34 1006.13 1412.61 1005.54 1411.19C1004.9 1409.59 1003.67 1408.52 1001.96 1408.16C1000.26 1407.79 998.696 1408.27 997.468 1409.47C996.35 1410.53 995.539 1412.06 995.11 1414.08ZM1041.68 1445.95C1034.15 1444.35 1028.66 1440.43 1026.12 1434.45C1024.44 1430.53 1024.06 1425.82 1025.19 1420.47C1026.31 1415.19 1028.65 1411.07 1031.69 1408.22C1036.45 1403.72 1043.24 1402.32 1051 1403.97C1062.56 1406.43 1069.46 1413.65 1067.52 1425.48L1051.53 1422.09C1051.53 1419.82 1050.28 1418.42 1048.11 1417.96C1046.56 1417.63 1045.17 1418.06 1043.96 1419.18C1042.74 1420.3 1041.93 1421.84 1041.47 1424.01C1041.03 1426.1 1041.11 1427.99 1041.7 1429.41C1042.29 1430.83 1043.33 1431.7 1044.72 1432C1046.82 1432.44 1048.54 1431.59 1049.37 1429.58L1065.36 1432.97C1062.33 1444.57 1053.16 1448.39 1041.68 1445.95ZM1068.11 1450.26L1079.65 1395.94L1095.94 1399.41L1090.85 1423.38L1086.12 1428.87L1088.06 1429.28L1104.07 1416.54L1120.83 1420.1L1101.97 1434.83L1112.04 1459.59L1094.89 1455.95L1089.85 1442.63L1086.16 1445.5L1084.41 1453.72L1068.11 1450.26ZM1132.46 1444.71L1123.22 1442.75L1129.14 1405.32L1142.26 1408.1L1132.46 1444.71ZM1118.38 1455.26C1118.88 1452.88 1119.88 1451.36 1121.37 1450.71C1122.87 1450 1124.56 1449.84 1126.42 1450.24C1128.23 1450.62 1129.68 1451.44 1130.76 1452.7C1131.86 1453.91 1132.15 1455.7 1131.65 1458.08C1131.16 1460.35 1130.17 1461.87 1128.65 1462.63C1127.15 1463.34 1125.49 1463.5 1123.68 1463.12C1121.82 1462.72 1120.35 1461.9 1119.26 1460.64C1118.19 1459.33 1117.89 1457.54 1118.38 1455.26Z" fill="black"/>
<mask id="mask4_705_794" style="mask-type:luminance" maskUnits="userSpaceOnUse" x="1144" y="395" width="503" height="318">
<path d="M1187.21 395.776L1646.57 479.574L1604.02 712.84L1144.66 629.042L1187.21 395.776Z" fill="white"/>
</mask>
<g mask="url(#mask4_705_794)">
<path d="M1637.66 506.922C1646.09 550 1544.56 606.137 1410.88 632.307C1277.2 658.479 1161.99 644.771 1153.56 601.693C1145.13 558.614 1246.66 502.477 1380.34 476.306C1514.02 450.135 1629.23 463.843 1637.66 506.922Z" fill="black"/>
<path d="M1637.66 506.922C1646.09 550 1544.56 606.137 1410.88 632.307C1277.2 658.479 1161.99 644.771 1153.56 601.693C1145.13 558.614 1246.66 502.477 1380.34 476.306C1514.02 450.135 1629.23 463.843 1637.66 506.922Z" stroke="black" stroke-width="4" stroke-miterlimit="10"/>
</g>
<path d="M1635.52 503.82C1643.95 546.898 1542.42 603.035 1408.74 629.205C1275.05 655.377 1159.85 641.669 1151.42 598.591C1142.98 555.513 1244.51 499.376 1378.2 473.204C1511.88 447.033 1627.08 460.741 1635.52 503.82Z" fill="#FF34A3"/>
<path d="M1635.52 503.82C1643.95 546.898 1542.42 603.035 1408.74 629.205C1275.05 655.377 1159.85 641.669 1151.42 598.591C1142.98 555.513 1244.51 499.376 1378.2 473.204C1511.88 447.033 1627.08 460.741 1635.52 503.82Z" stroke="black" stroke-width="4" stroke-miterlimit="10"/>
<path d="M1321.24 589.46L1310.55 534.968L1336.94 529.79C1344.02 528.4 1350.49 530.446 1354.55 535.066C1356.42 537.204 1357.66 539.791 1358.25 542.827C1358.91 546.174 1358.75 548.632 1357.82 551.32C1356.59 554.956 1353.14 557.978 1348.7 560.062L1348.99 561.541L1354.03 561.684L1366.47 580.585L1347.17 584.373L1336.18 567.531L1334.78 567.806L1338.37 586.099L1321.24 589.46ZM1332.24 554.883L1337.23 553.906C1339.33 553.493 1340.8 552.316 1341.36 550.669C1341.57 550.063 1341.63 549.161 1341.49 548.46C1341.34 547.682 1340.94 546.871 1340.52 546.388C1339.37 545.077 1337.6 544.697 1335.5 545.109L1330.52 546.087L1332.24 554.883ZM1371.56 579.587L1363.77 539.885L1380.12 536.678L1378.32 547.702L1380.27 547.32C1380.95 539.263 1384.39 534.546 1391.01 533.248C1399.8 531.522 1405.29 535.618 1407.16 545.115L1412.35 571.583L1396 574.791L1391.65 552.605C1391.16 550.113 1389.78 548.848 1387.21 549.352C1384.49 549.887 1383.16 552.169 1383.83 555.594L1387.91 576.379L1371.56 579.587ZM1420.53 569.979L1409.83 515.487L1434.2 510.706C1442.92 508.995 1449.37 510.154 1452.93 514.306C1454.3 515.898 1455.29 518.048 1455.79 520.617C1456.28 523.108 1456.16 525.395 1455.49 527.306C1454.21 531.113 1451.17 534.54 1444.55 535.839L1444.93 537.785C1451.78 536.441 1455.62 538.679 1458.31 541.707C1459.66 543.221 1460.65 545.372 1461.14 547.863C1461.64 550.432 1461.54 552.796 1460.88 554.785C1459.15 559.976 1453.61 563.487 1444.89 565.198L1420.53 569.979ZM1434.13 552.759L1439.34 551.735C1440.98 551.415 1442.04 550.641 1442.4 549.6C1442.6 548.994 1442.64 548.34 1442.5 547.64C1442.36 546.939 1442.18 546.409 1441.76 545.926C1440.92 544.958 1439.66 544.72 1438.03 545.041L1432.81 546.064L1434.13 552.759ZM1430.25 532.986L1435.46 531.963C1437.1 531.642 1438.17 530.946 1438.58 529.734C1438.79 529.128 1438.76 528.567 1438.62 527.867C1438.48 527.166 1438.2 526.574 1437.79 526.09C1437.06 525.263 1435.78 524.947 1434.15 525.268L1428.93 526.291L1430.25 532.986ZM1478.52 539.44L1469.25 541.258L1460.02 504.508L1473.18 501.926L1478.52 539.44ZM1469.7 554.671C1469.23 552.284 1469.56 550.496 1470.67 549.307C1471.77 548.066 1473.26 547.263 1475.13 546.896C1476.95 546.54 1478.6 546.727 1480.09 547.459C1481.57 548.138 1482.55 549.672 1483.01 552.059C1483.46 554.342 1483.14 556.13 1482.05 557.423C1480.94 558.663 1479.48 559.462 1477.66 559.818C1475.8 560.185 1474.12 560.002 1472.63 559.271C1471.12 558.488 1470.15 556.954 1469.7 554.671Z" fill="black"/>
<mask id="mask5_705_794" style="mask-type:luminance" maskUnits="userSpaceOnUse" x="-150" y="374" width="524" height="440">
<path d="M-30.8639 374.911L373.519 608.382L254.961 813.73L-149.422 580.26L-30.8639 374.911Z" fill="white"/>
</mask>
<g mask="url(#mask5_705_794)">
<path d="M355.928 631.138C349.376 674.542 234.874 693.243 100.183 672.909C-34.5109 652.576 -138.387 600.905 -131.835 557.5C-125.281 514.097 -10.781 495.395 123.911 515.727C258.604 536.062 362.48 587.733 355.928 631.138Z" fill="black"/>
<path d="M355.928 631.138C349.376 674.542 234.874 693.243 100.183 672.909C-34.5109 652.576 -138.387 600.905 -131.835 557.5C-125.281 514.097 -10.781 495.395 123.911 515.727C258.604 536.062 362.48 587.733 355.928 631.138Z" stroke="black" stroke-width="4" stroke-miterlimit="10"/>
</g>
<path d="M354.951 627.495C348.399 670.899 233.898 689.601 99.206 669.267C-35.4874 648.933 -139.363 597.262 -132.811 553.857C-126.258 510.454 -11.7575 491.752 122.935 512.085C257.627 532.419 361.503 584.09 354.951 627.495Z" fill="#FF34A3"/>
<path d="M354.951 627.495C348.399 670.899 233.898 689.601 99.206 669.267C-35.4874 648.933 -139.363 597.262 -132.811 553.857C-126.258 510.454 -11.7575 491.752 122.935 512.085C257.627 532.419 361.503 584.09 354.951 627.495Z" stroke="black" stroke-width="4" stroke-miterlimit="10"/>
<path d="M354.951 627.495C348.399 670.899 233.898 689.601 99.206 669.267C-35.4874 648.933 -139.363 597.262 -132.811 553.857C-126.258 510.454 -11.7575 491.752 122.935 512.085C257.627 532.419 361.503 584.09 354.951 627.495Z" stroke="black" stroke-width="4" stroke-miterlimit="10"/>
<path d="M33.2101 602.855L41.476 547.943L66.1081 551.651C74.1096 552.855 80.0108 557.354 82.4435 563.576C83.5992 566.558 83.9661 569.982 83.4111 573.669C82.8443 577.435 81.4855 580.6 79.5033 583.109C75.3465 588.34 68.3825 590.902 60.381 589.697L53.0071 588.587L50.4683 605.453L33.2101 602.855ZM55.2034 573.996L60.224 574.752C62.4205 575.082 64.1075 574.534 65.1948 573.174C65.5912 572.672 65.9446 571.923 66.0745 571.06C66.1926 570.275 66.0753 569.455 65.8442 568.859C65.2057 567.239 63.7548 566.218 61.5583 565.887L56.5378 565.132L55.2034 573.996ZM100.492 614.267C92.5692 613.074 86.5423 608.878 83.6035 602.82C81.7697 599.014 81.0737 594.577 81.8059 589.713C82.538 584.85 84.5092 580.814 87.3822 577.717C91.9742 572.792 98.9693 570.556 106.892 571.749C114.815 572.941 120.842 577.138 123.781 583.196C125.615 587.002 126.311 591.439 125.579 596.302C124.847 601.166 122.875 605.201 120.003 608.299C115.411 613.223 108.415 615.459 100.492 614.267ZM98.2796 592.193C97.9725 594.233 98.1952 595.951 98.8692 597.336C99.598 598.89 100.892 599.887 102.618 600.146C104.344 600.406 105.874 599.834 107.028 598.564C108.079 597.439 108.798 595.862 109.105 593.823C109.412 591.783 109.189 590.065 108.515 588.68C107.787 587.126 106.493 586.129 104.767 585.869C103.041 585.609 101.511 586.181 100.357 587.452C99.3052 588.577 98.5866 590.153 98.2796 592.193ZM126.299 631.308L134.446 577.18L150.92 579.66L145.518 589.436L147.479 589.731C150.828 582.935 155.659 579.09 162.248 580.081C167.347 580.849 171.163 583.75 173.306 588.164C175.261 592.229 175.984 597.552 175.051 603.749C174.119 609.947 171.861 614.821 168.795 618.13C165.447 621.718 160.947 623.367 155.848 622.599C149.259 621.607 145.774 616.51 144.574 609.029L142.613 608.734L144.898 619.667L142.772 633.788L126.299 631.308ZM147.752 599.64C147.433 601.758 147.723 603.566 148.397 604.952C149.137 606.427 150.443 607.345 152.09 607.593C153.738 607.841 155.256 607.348 156.398 606.156C157.45 605.031 158.259 603.388 158.578 601.27C158.897 599.151 158.607 597.343 157.933 595.958C157.193 594.483 155.887 593.564 154.24 593.316C152.592 593.068 151.074 593.562 149.932 594.754C148.88 595.879 148.071 597.522 147.752 599.64ZM193.087 607.908L183.752 606.503L187.424 568.789L200.681 570.785L193.087 607.908ZM179.662 619.285C180.024 616.879 180.93 615.304 182.379 614.559C183.836 613.763 185.506 613.506 187.389 613.789C189.219 614.065 190.713 614.798 191.871 615.988C193.037 617.126 193.439 618.898 193.077 621.304C192.73 623.605 191.825 625.18 190.36 626.029C188.903 626.826 187.259 627.087 185.429 626.811C183.546 626.528 182.026 625.791 180.868 624.6C179.718 623.358 179.316 621.586 179.662 619.285Z" fill="black"/>
<path d="M62.0719 924.848C56.7096 897.12 66.1096 890.566 90.2723 905.187C114.435 919.806 123.835 913.253 118.473 885.525C113.11 857.798 122.51 851.244 146.673 865.864C170.836 880.484 180.235 873.931 174.873 846.203C169.512 818.475 178.911 811.922 203.074 826.542C227.237 841.161 236.636 834.608 231.274 806.881" stroke="#030303" stroke-width="6" stroke-linecap="round"/>
<path d="M1366.37 791.382C1360.97 763.661 1370.36 757.095 1394.54 771.684C1418.72 786.272 1428.12 779.707 1422.72 751.986C1417.32 724.265 1426.71 717.699 1450.89 732.288C1475.07 746.877 1484.46 740.311 1479.07 712.591C1473.67 684.869 1483.06 678.304 1507.24 692.893C1531.42 707.481 1540.81 700.916 1535.42 673.195" stroke="#030303" stroke-width="6" stroke-linecap="round"/>
</g>
<defs>
<clipPath id="clip0_705_794">
<rect width="1500" height="1500" fill="white"/>
</clipPath>
</defs>
</svg>
