<svg width="300" height="24" viewBox="0 0 300 24" fill="none" xmlns="http://www.w3.org/2000/svg">
<g clip-path="url(#clip0_727_1596)">
<path d="M205.833 4.27069C205.833 4.27069 206.564 4.27069 208.16 4.27069C209.302 4.27069 209.534 4.69982 209.561 5.70059L209.546 15.8451C209.546 18.1892 208.692 20.7389 202.248 20.7389C196.198 20.7389 196.457 16.5747 196.457 15.8597V5.68845C196.484 4.63991 196.591 4.27069 197.746 4.27069C199.352 4.27069 200.228 4.27069 200.228 4.27069V1.76061H185.937V4.27069C185.937 4.27069 186.788 4.27069 188.382 4.27069C189.568 4.27069 189.781 4.73707 189.793 5.83175V15.5529C189.793 22.0117 196.485 23.1477 202.248 23.1477C208.105 23.1477 213.777 21.9664 213.777 15.752L213.729 5.25285C213.797 4.53788 214.023 4.27069 214.999 4.27069C216.606 4.27069 217.551 4.27069 217.551 4.27069V1.76061H205.832L205.833 4.27069ZM244.141 10.63C243.491 10.315 242.535 10.0397 241.706 9.83811C240.077 9.41544 236.348 8.92638 234.602 8.75636C232.78 8.55718 229.586 8.20901 228.324 7.81144C227.916 7.70137 227.134 7.20337 227.134 6.29813C227.134 5.64312 227.513 5.09578 228.206 4.63991C229.331 3.94763 231.618 3.51202 233.989 3.51202C236.802 3.48931 239.179 4.11765 240.694 4.79537C241.21 5.05203 241.81 5.37996 242.292 5.74837C242.84 6.20018 243.582 7.12484 243.851 8.39522H246.403V1.49342H243.582V2.28937C243.582 2.55659 243.319 2.88371 242.788 2.60192C241.521 1.92664 237.938 0.510493 233.533 0.494325C231.037 0.494325 228.206 0.971275 225.81 2.04479C223.588 3.0254 221.751 4.63101 221.751 7.29892C221.751 9.68265 223.279 11.0364 223.225 10.9951C223.878 11.5854 224.925 12.5538 227.646 13.1173C228.861 13.4137 231.489 13.7618 234.09 14.0436C236.669 14.3116 239.175 14.6719 240.211 14.9189C241.032 15.1237 242.396 15.501 242.396 17.0265C242.396 18.5689 240.951 19.0434 240.694 19.1325C240.429 19.2466 238.709 20.0385 235.57 20.0385C233.251 20.0385 230.494 19.3422 229.476 18.9916C228.314 18.5689 227.093 18.024 225.961 16.6079C225.673 16.2824 225.24 15.3124 225.24 14.3796H222.385V22.3081H225.532C225.532 22.3081 225.532 21.4627 225.532 21.2304C225.532 21.1348 225.706 20.6271 226.201 20.8782C226.869 21.168 228.792 21.9308 230.828 22.3494C232.474 22.6878 233.533 22.9299 235.577 22.9299C238.949 22.9299 240.738 22.3971 241.988 22.0409C243.18 21.6903 244.622 21.0871 245.787 20.1583C246.436 19.6717 247.808 18.3633 247.808 15.9885C247.808 13.7165 246.614 12.3983 246.171 11.9813C245.597 11.3951 244.888 10.9822 244.141 10.63ZM263.957 19.3316C263.68 19.2572 263.491 19.0604 263.423 18.8677L263.375 18.3034L263.329 5.35242L263.385 4.78486C263.456 4.59619 263.651 4.39944 263.922 4.32899L264.625 4.28282C265.118 4.28282 267.232 4.28282 267.232 4.28282V1.76058H253.241V4.28282H255.72L256.41 4.32899C256.688 4.39941 256.866 4.59619 256.953 4.78486L257.003 5.35242L256.964 18.3034L256.934 18.8677C256.83 19.0604 256.665 19.2572 256.374 19.3316L255.69 19.3794H253.215V21.8975H267.252V19.3794C267.252 19.3794 265.142 19.3794 264.641 19.3794L263.957 19.3316ZM296.21 14.7318C295.748 16.2889 294.16 18.0839 292.657 18.7973C291.271 19.4604 289.469 20.1713 286.596 20.1316L285.977 20.113C285.487 20.0757 285.015 20.003 284.555 19.9138C282.884 19.5657 281.342 18.8054 280.214 17.688C278.714 16.1642 277.895 14.0298 277.895 11.7724C277.895 9.47374 278.707 7.36776 280.214 5.84231C281.769 4.31604 284.024 3.51203 286.414 3.46427H286.528H286.856C289.482 3.512 291.018 3.8602 292.985 4.85529C294.228 5.49172 295.974 7.29893 296.336 9.15231H299.075V1.69174H296.245V2.49825L296.024 2.85694C295.899 2.94198 295.709 2.94198 295.456 2.81559C294.241 2.17278 290.985 0.456906 286.597 0.447998L286.103 0.457328H286.052C281.769 0.583718 277.309 2.0969 274.726 4.41996C274.114 4.99647 273.58 5.61183 273.136 6.28955C272.054 7.9235 271.496 9.84487 271.496 11.7727C271.496 11.959 271.496 12.1662 271.508 12.3549C271.658 14.869 272.717 17.3045 274.727 19.1206C277.157 21.3133 280.591 22.642 284.378 23.0152C287.998 23.3472 291.729 22.7788 294.266 21.3505C296.786 19.902 298.529 17.5304 299.128 14.8941L299.155 14.7321L296.21 14.7318ZM169.326 1.76061L163.353 14.927L157.386 1.76061H144.404V4.28285H146.609C148.194 4.28285 148.303 5.15567 148.303 5.9354V17.6985C148.303 18.428 148.354 19.3794 147.329 19.3794C145.735 19.3794 144.605 19.3794 144.605 19.3794V21.8976H155.543V19.3794C155.543 19.3794 154.985 19.3794 153.401 19.3794C152.281 19.3794 152.212 18.8774 152.193 17.756L152.2 4.94193H152.294L159.953 21.8976H164.25L171.849 4.94193H171.952L172.034 17.756C172.016 18.8774 171.952 19.3794 170.829 19.3794C169.246 19.3794 168.678 19.3794 168.678 19.3794V21.8976H181.944V19.3794C181.944 19.3794 180.814 19.3794 179.204 19.3794C178.192 19.3794 178.242 18.428 178.242 17.6985L178.167 5.9354C178.167 5.15567 178.282 4.28285 179.871 4.28285H182.07V1.76061H172.895H169.326ZM84.2907 4.27069C84.2907 4.27069 85.3003 4.27069 86.897 4.27069C88.0744 4.27069 88.2875 4.73707 88.297 5.83175L88.443 14.2493L74.6158 1.76061H64.7223V4.28285H66.9205C68.5035 4.28285 68.6169 5.15567 68.6169 5.9354V17.6985C68.6169 18.428 68.6648 19.3794 67.6468 19.3794C66.0479 19.3794 64.924 19.3794 64.924 19.3794V21.8976H76.547V19.3794C76.547 19.3794 75.296 19.3794 73.7075 19.3794C72.5811 19.3794 72.5237 18.8774 72.5034 17.756V7.66814L88.443 21.8976H92.4969L92.2799 5.83175C92.3116 4.66661 92.369 4.27069 93.5754 4.27069C95.1835 4.27069 96.1196 4.27069 96.1196 4.27069V1.76061H84.2907L84.2907 4.27069ZM23.068 10.5012C22.404 10.1992 21.4 9.82595 20.5652 9.6389C18.9313 9.23083 15.2739 8.73125 13.5274 8.55718C11.6935 8.36043 8.49442 8.08918 7.23456 7.70134C6.84185 7.59128 6.04673 7.20337 6.04673 6.29813C6.04673 5.64312 6.42163 5.09578 7.1212 4.63991C8.24341 3.94763 10.5454 3.51202 12.9105 3.51202C15.729 3.48931 18.1054 4.11765 19.609 4.79537C20.1328 5.05203 20.7296 5.37996 21.2146 5.74837C21.7555 6.20018 22.5021 7.12484 22.7885 8.39522H25.3286V1.49342H22.4979V2.28937C22.4979 2.55659 22.2283 2.88371 21.7173 2.60192C20.4446 1.92664 16.8658 0.510493 12.4578 0.494325C9.96723 0.494325 7.1212 0.971275 4.73341 2.04479C2.51083 3.0254 0.672852 4.63101 0.672852 7.29892C0.672852 9.68265 2.20153 11.0858 2.1562 11.0364C2.808 11.6518 3.85168 12.6655 6.57628 13.2541C7.79079 13.5214 10.385 13.9302 12.9874 14.2177C15.5581 14.4727 18.0949 14.7407 19.1345 14.9869C19.9539 15.2128 21.3174 15.501 21.3174 17.0265C21.3174 18.5689 19.8705 19.0434 19.609 19.1325C19.3523 19.2466 17.6285 20.0385 14.4885 20.0385C12.1817 20.0385 9.41423 19.3422 8.39806 18.9916C7.24183 18.5689 6.01595 18.024 4.87592 16.6079C4.59174 16.2824 4.15532 15.3253 4.15532 14.3796H1.30521V22.3081H4.45732C4.45732 22.3081 4.45732 21.4627 4.45732 21.2304C4.45732 21.1348 4.62412 20.6271 5.12937 20.8782C5.78764 21.168 7.71631 21.9308 9.74214 22.3494C11.3931 22.6878 12.4578 22.9299 14.5063 22.9299C17.8673 22.9299 19.6705 22.3971 20.9077 22.0409C22.1004 21.6903 23.5457 21.0871 24.7109 20.1583C25.3522 19.6717 26.7374 18.3633 26.7374 15.9885C26.7374 13.7165 25.5383 12.3068 25.0962 11.8858C24.5108 11.3036 23.8121 10.8478 23.068 10.5012ZM117.993 4.27069C117.993 4.27069 119.389 4.27069 119.701 4.27069C120.205 4.27069 120.341 4.78486 120.122 5.05203L115.293 10.7028L115.157 10.6753L110.454 5.05205C110.11 4.63102 110.388 4.27071 110.763 4.27071C111.099 4.27071 112.43 4.27071 112.43 4.27071V1.76061H98.5525V4.27071C98.5525 4.27071 100.16 4.27071 101.024 4.27071C102.1 4.27071 102.794 4.9549 103.2 5.39617C103.526 5.74028 110.596 13.7618 110.763 13.9837C110.933 14.2056 110.933 14.2493 110.933 14.3464V18.3034L110.886 18.8677C110.779 19.0604 110.612 19.2572 110.343 19.3317L109.643 19.3794H107.175V21.8975H120.976V19.3794C120.976 19.3794 118.874 19.3794 118.359 19.3794L117.68 19.3317C117.403 19.2572 117.219 19.0604 117.14 18.8677L117.085 18.3034C117.085 17.9471 117.085 14.5003 117.085 14.3465L117.186 13.961C117.372 13.7513 124.52 5.5832 124.842 5.22451C125.527 4.43263 125.907 4.27071 126.829 4.27071C127.677 4.27071 129.364 4.27071 129.364 4.27071V1.76061H117.993L117.993 4.27069ZM52.8984 17.6985C51.305 19.2985 49.0144 20.1583 46.5206 20.1583C44.0728 20.1583 41.7312 19.2985 40.141 17.6985C38.6309 16.1893 37.8171 14.0606 37.8171 11.8056C37.8171 9.52311 38.6204 7.37988 40.141 5.87954C41.7312 4.31602 44.0728 3.444 46.5206 3.444C48.9609 3.444 51.3212 4.32899 52.8984 5.87954C54.4401 7.37988 55.2264 9.50289 55.2264 11.8056C55.2264 14.1853 54.492 16.1002 52.8984 17.6985ZM46.5206 0.494325C42.0761 0.494325 37.3379 2.02385 34.6481 4.44477C32.5187 6.39935 31.4093 9.09398 31.4093 11.8056C31.4093 14.5335 32.4805 17.2006 34.6481 19.1576C37.5491 21.755 41.8649 23.1477 46.5206 23.1477C51.2045 23.1477 55.6237 21.7753 58.4303 19.1576C60.5143 17.2257 61.6172 14.4274 61.6172 11.8056C61.6172 9.08346 60.5766 6.42446 58.4303 4.46986C55.4158 1.72743 51.47 0.494325 46.5206 0.494325Z" fill="black"/>
</g>
<defs>
<clipPath id="clip0_727_1596">
<rect width="300" height="24" fill="white"/>
</clipPath>
</defs>
</svg>
