<svg width="102" height="65" viewBox="0 0 102 65" fill="none" xmlns="http://www.w3.org/2000/svg">
<g clip-path="url(#clip0_727_1586)">
<path d="M86.9767 57.729C86.3633 57.4822 85.6027 57.27 84.8991 57.27C84.0594 57.27 82.9138 57.435 82.9138 58.3072C82.9138 59.2822 84.6692 59.6572 85.6367 59.9849C87.0329 60.4536 88.3101 60.8721 88.3101 62.4568C88.3101 64.3468 86.5776 64.9985 84.868 64.9985C83.9153 64.9985 82.5783 64.7848 81.7246 64.2275C81.4932 64.0745 81.4223 63.872 81.4223 63.641C81.4223 63.2248 81.7216 63.0096 82.0195 63.0096C82.2146 63.0096 82.4593 63.1408 82.4593 63.1408C83.2974 63.5608 84.0868 63.707 84.8621 63.707C85.7276 63.707 86.9383 63.4858 86.9383 62.5086C86.9383 61.4811 85.3928 61.3484 83.8148 60.7746C82.678 60.3584 81.5428 59.8694 81.5428 58.3117C81.5428 56.523 83.2641 55.989 84.8688 55.989C85.6818 55.989 86.7446 56.2238 87.5229 56.556C87.7757 56.6632 87.9235 56.9025 87.9235 57.1365C87.9235 57.4815 87.7144 57.7845 87.3241 57.7845C87.2266 57.7875 87.0809 57.7702 86.9767 57.729ZM101.843 63.3313C101.06 64.3475 99.7634 65 98.4655 65C95.9999 65 94.124 62.9413 94.124 60.4904C94.124 58.0387 95.9999 55.9913 98.4655 55.9913C99.5321 55.9913 100.572 56.3715 101.344 57.1267C101.486 57.27 101.562 57.438 101.562 57.6082C101.562 57.753 101.512 57.9097 101.409 58.0267C101.295 58.1692 101.126 58.2495 100.96 58.2495C100.818 58.2495 100.663 58.1977 100.534 58.0927C99.9186 57.5587 99.3392 57.2857 98.4663 57.2857C96.668 57.2857 95.5113 58.7707 95.5113 60.4911C95.5113 62.2116 96.6665 63.7243 98.4663 63.7243C99.79 63.7243 100.47 63.0208 100.933 62.4598C101.049 62.3316 101.202 62.2633 101.37 62.2633C101.523 62.2633 101.693 62.3151 101.807 62.4328C101.935 62.5506 102 62.7066 102 62.8783C101.999 63.0328 101.945 63.2008 101.843 63.3313ZM91.2813 64.9355C90.8963 64.9355 90.5888 64.6228 90.5888 64.2313V56.7367C90.5888 56.346 90.8955 56.0333 91.2813 56.0333C91.6672 56.0333 91.9628 56.346 91.9628 56.7367V64.2305C91.9621 64.622 91.6664 64.9355 91.2813 64.9355ZM75.822 65C73.652 65 72.2506 63.5541 72.2506 61.3259V56.7367C72.2506 56.346 72.547 56.0333 72.9321 56.0333C73.3171 56.0333 73.6268 56.346 73.6268 56.7367V61.5021C73.6268 62.8183 74.4103 63.7183 75.822 63.7183C77.2352 63.7183 78.0046 62.8168 78.0046 61.5021V56.7367C78.0046 56.346 78.3121 56.0333 78.6986 56.0333C79.0822 56.0333 79.3919 56.346 79.3919 56.7367V61.3259C79.3927 63.5541 77.9898 65 75.822 65ZM69.2697 64.9355C68.9105 64.9355 68.6274 64.6483 68.6274 64.283V59.4607C67.0842 62.6286 66.2386 64.5845 66.2386 64.5845C66.1359 64.8178 65.9289 64.9363 65.6858 64.9363C65.4145 64.9363 65.2342 64.8178 65.1174 64.571L62.7182 59.4749V64.271C62.7182 64.6378 62.4226 64.9378 62.0619 64.9378C61.7034 64.9378 61.4196 64.6385 61.4196 64.271V56.6835C61.4196 56.319 61.7034 56.0333 62.0619 56.0333C62.3457 56.0333 62.5497 56.2155 62.6657 56.4502L65.685 62.8633L68.6799 56.4368C68.7804 56.202 68.9992 56.034 69.2697 56.034C69.6282 56.034 69.9246 56.3333 69.9246 56.6977V64.2838C69.9246 64.6483 69.6297 64.9355 69.2697 64.9355ZM52.5162 57.426H49.6662V59.9804H52.5162C53.2627 59.9804 53.8658 59.5124 53.8658 58.7167C53.8658 57.921 53.2745 57.426 52.5162 57.426ZM53.687 60.9464C53.687 60.9464 53.738 61.0379 55.1378 63.9575C55.1888 64.049 55.2029 64.139 55.2029 64.2433C55.2029 64.5058 55.0735 64.7518 54.8304 64.868C54.7387 64.9213 54.6352 64.9348 54.5332 64.9348C54.2768 64.9348 54.0462 64.7908 53.9279 64.5433L52.3255 61.1804H49.6654V64.2425C49.6654 64.6333 49.3424 64.9355 48.9707 64.9355C48.5974 64.9355 48.2899 64.622 48.2899 64.2425V56.8417C48.2899 56.4623 48.5981 56.1503 48.9707 56.1503H52.3351C53.9434 56.1503 55.2406 56.9317 55.2406 58.6792C55.2398 59.7337 54.6885 60.6066 53.687 60.9464ZM45.5271 64.8305H40.5691C40.1841 64.8305 39.8744 64.5178 39.8744 64.127V56.841C39.8744 56.4502 40.1833 56.1495 40.5691 56.1495H45.3342C45.6934 56.1495 45.9913 56.424 45.9913 56.7877C45.9913 57.1515 45.6942 57.4522 45.3342 57.4522H41.2499V59.7472H43.5367C43.8966 59.7472 44.179 60.0336 44.179 60.3981C44.179 60.7641 43.8966 61.0499 43.5367 61.0499H41.2499V63.5271H45.5271C45.8871 63.5271 46.1687 63.8135 46.1687 64.178C46.1687 64.5433 45.8871 64.8305 45.5271 64.8305ZM36.5099 64.9355C36.2904 64.9355 36.1374 64.856 36.008 64.6873L31.4854 58.5089V64.283C31.4854 64.6483 31.1905 64.9355 30.8335 64.9355C30.4728 64.9355 30.189 64.6483 30.189 64.283V56.6962C30.189 56.3573 30.4469 56.0325 30.8586 56.0325C31.0508 56.0325 31.2437 56.136 31.3457 56.2778C31.3457 56.2778 33.8912 59.8619 35.8684 62.4576V56.6962C35.8684 56.3325 36.1507 56.0325 36.5106 56.0325C36.8706 56.0325 37.1662 56.3318 37.1662 56.6962V64.2823C37.1655 64.6483 36.8699 64.9355 36.5099 64.9355ZM25.0226 57.426H22.1703V59.9804H25.0226C25.7676 59.9804 26.3707 59.5124 26.3707 58.7167C26.3707 57.921 25.7824 57.426 25.0226 57.426ZM26.1911 60.9464C26.1911 60.9464 26.2414 61.0379 27.642 63.9575C27.6937 64.049 27.7063 64.139 27.7063 64.2433C27.7063 64.5058 27.5784 64.7518 27.3345 64.868C27.2444 64.9213 27.1416 64.9348 27.0381 64.9348C26.7809 64.9348 26.5503 64.7908 26.4335 64.5433L24.8297 61.1804H22.1696V64.2425C22.1696 64.6333 21.8488 64.9355 21.477 64.9355C21.1045 64.9355 20.7963 64.622 20.7963 64.2425V56.8417C20.7963 56.4615 21.1045 56.1503 21.477 56.1503H24.8422C26.4468 56.1503 27.7462 56.9317 27.7462 58.6792C27.747 59.7337 27.1926 60.6066 26.1911 60.9464ZM14.8753 58.2105L13.4229 61.5074H16.3261L14.8753 58.2105ZM18.5221 64.868C18.4319 64.9085 18.341 64.9348 18.2523 64.9348C18.0084 64.9348 17.763 64.7923 17.6617 64.544L16.8517 62.6938H12.8966L12.0866 64.544C11.9831 64.7923 11.7266 64.9348 11.4812 64.9348C11.3903 64.9348 11.3135 64.9213 11.224 64.883C10.9942 64.778 10.8515 64.5298 10.8515 64.2823C10.8515 64.1915 10.8656 64.0858 10.904 63.995L14.2817 56.424C14.386 56.2013 14.6158 56.0333 14.8738 56.0333C15.1317 56.0333 15.3616 56.1885 15.4636 56.424L18.8428 63.995C18.882 64.0873 18.8946 64.1773 18.8946 64.2688C18.8946 64.517 18.766 64.7668 18.5221 64.868ZM10.3164 56.9047L7.93865 64.4653C7.8507 64.7518 7.58018 64.9355 7.29636 64.9355C7.02806 64.9355 6.77159 64.7518 6.69398 64.478L5.1788 58.9627L3.64956 64.478C3.57196 64.7518 3.32879 64.9355 3.05901 64.9355C2.77593 64.9355 2.50615 64.7518 2.41672 64.4653L0.0264195 56.9047C0.0138545 56.841 0.000550535 56.7877 0.000550535 56.7225C-0.0112753 56.4352 0.16833 56.1623 0.451412 56.0715C0.514236 56.0453 0.579279 56.0318 0.643582 56.0318C0.925924 56.0318 1.1824 56.2125 1.27183 56.502L3.03166 62.0916L4.58676 56.4878C4.6385 56.292 4.81885 56.0333 5.17806 56.0333C5.53579 56.0333 5.71835 56.2928 5.76861 56.4878L7.31114 62.0916L9.07098 56.5027C9.16115 56.214 9.41615 56.0333 9.70071 56.0333C9.76353 56.0333 9.82857 56.046 9.89288 56.0715C10.1752 56.1638 10.3548 56.4247 10.3548 56.7112C10.3556 56.775 10.343 56.841 10.3164 56.9047Z" fill="black"/>
<path d="M52.4104 0.0202983C53.1695 0.0502975 53.9308 0.0592971 54.6898 0.101296C55.4393 0.141045 56.1865 0.195043 56.933 0.272291C57.7993 0.360039 58.6618 0.456786 59.5222 0.591032C62.3035 1.02602 64.9968 1.7595 67.4824 3.14921C70.4936 4.83292 72.7457 7.26135 74.255 10.3895C74.9157 11.7627 75.3171 13.2327 75.6548 14.7176C76.0503 16.4508 76.3075 18.2065 76.4834 19.9742C76.6778 21.9474 76.745 23.9274 76.6623 25.9096C76.5396 28.9372 76.1781 31.9357 75.4139 34.8741C75.0421 36.3095 74.5839 37.718 73.8588 39.0147C71.9918 42.3529 69.3184 44.7768 65.829 46.2738C64.1845 46.9795 62.4757 47.4587 60.7232 47.8067C59.5554 48.0347 58.378 48.205 57.1962 48.3242C56.2434 48.4217 55.2833 48.496 54.324 48.5192C52.5028 48.5657 50.6809 48.5875 48.8597 48.574C47.8205 48.5672 46.7805 48.4877 45.7436 48.4097C44.8869 48.346 44.0303 48.2665 43.1796 48.1487C40.365 47.764 37.617 47.1212 35.0508 45.8395C31.6908 44.1588 29.1852 41.6074 27.5451 38.1942C26.8702 36.7925 26.4652 35.2918 26.1289 33.7746C25.7497 32.0699 25.497 30.3457 25.3336 28.6065C25.1865 27.0376 25.0949 25.4663 25.1171 23.8906C25.1341 22.5902 25.2095 21.2942 25.3329 19.9982C25.5073 18.1683 25.7764 16.3541 26.1895 14.5639C26.5177 13.1382 26.9109 11.732 27.5436 10.4098C28.9479 7.47509 31.0241 5.14941 33.7832 3.46195C35.5105 2.40598 37.3775 1.69875 39.3258 1.19327C40.5956 0.864775 41.878 0.611282 43.1788 0.459786C44.2299 0.338289 45.2853 0.228793 46.34 0.153045C47.3075 0.0832966 48.2787 0.0675469 49.2492 0.0217982C50.5663 -0.0307004 51.0615 0.0292981 52.4104 0.0202983ZM46.1353 18.2598C46.1279 18.727 46.3009 19.4103 46.5714 20.0725C47.7732 23.0154 48.972 25.9613 50.1701 28.9057C50.9994 30.9404 51.8198 32.9766 52.655 35.0091C53.3905 36.797 54.726 37.8155 56.6049 38.057C57.9161 38.2272 59.1068 37.8568 60.1245 36.9883C61.2842 35.9961 61.8851 34.7271 61.8748 33.1769C61.8689 32.4734 61.6915 31.8142 61.4306 31.1699C60.3988 28.6403 59.3662 26.1083 58.3359 23.5764C57.3447 21.1382 56.344 18.7038 55.3639 16.2596C54.3883 13.8379 52.0445 12.9087 50.0933 13.2462C47.7961 13.6452 46.1301 15.7114 46.1353 18.2598ZM44.66 38.081C45.4649 38.1132 46.224 37.889 46.935 37.4803C48.9824 36.3035 50.0075 33.7649 48.9831 31.2659C47.3563 27.3045 45.751 23.3319 44.136 19.3683C43.7021 18.298 43.2808 17.2226 42.8241 16.1629C42.0147 14.2887 40.5565 13.3302 38.5734 13.1854C37.5763 13.1112 36.6458 13.3962 35.8224 13.9692C34.4144 14.9486 33.6642 16.3008 33.6509 18.052C33.6465 18.7653 33.8216 19.4365 34.0899 20.089C34.9724 22.2527 35.8535 24.4209 36.7352 26.5861C37.8764 29.3902 39.0257 32.1907 40.1551 34.9986C41.0317 37.1743 42.9578 38.1012 44.66 38.081ZM64.9377 26.5673C65.3671 26.5823 65.781 26.5096 66.1882 26.3941C68.6961 25.6808 70.481 22.8264 69.314 19.8715C68.8217 18.6288 68.3139 17.3928 67.8047 16.1569C66.7056 13.4907 63.6642 12.5412 61.421 13.6092C59.208 14.6629 57.9508 17.2833 58.9885 19.8887C59.4749 21.1105 59.9597 22.3352 60.4771 23.5449C61.3212 25.5203 62.8585 26.4668 64.9377 26.5673Z" fill="black"/>
</g>
<defs>
<clipPath id="clip0_727_1586">
<rect width="102" height="65" fill="white"/>
</clipPath>
</defs>
</svg>
